<?xml version="1.0" encoding="UTF-8"?>
<svg id="Layer_1" xmlns="http://www.w3.org/2000/svg" version="1.1" viewBox="0 0 200 200">
  <!-- Generator: Adobe Illustrator 29.5.1, SVG Export Plug-In . SVG Version: 2.1.0 Build 141)  -->
  <defs>
    <style>
      .st0 {
        fill: #fff;
        fill-opacity: 0;
      }

      .st1 {
        fill: none;
      }

      .st1, .st2 {
        stroke: #6d3cff;
        stroke-miterlimit: 10;
        stroke-width: 7.93px;
      }

      .st2 {
        fill: #6d3cff;
      }
    </style>
  </defs>
  <rect class="st0" width="200" height="200" rx="34.45" ry="34.45"/>
  <g>
    <g>
      <path class="st1" d="M120.79,102.39c-3.43-2.71-7.09-4.36-10.85-4.67-3.58-.29-7.23.63-10.84,3.08-2.47,1.67-4.24,4.2-6.85,5.68-9.38,5.33-21.26-4.04-15.68-14.01l2.61-2.61c5.18-4.45,10.3-9.98,15.87-15.87l5.44-5.44-17.58-17.58c-4.66-4.66-12.22-4.66-16.88,0l-31.71,31.71c-4.66,4.66-4.66,12.22,0,16.88l57.72,57.72c4.66,4.66,12.22,4.66,16.88,0l33.74-33.74s-15.33-15.97-21.88-21.15h0Z"/>
      <path class="st2" d="M134.94,50.97c-4.66-4.66-12.22-4.66-16.88,0l-17.58,17.58-5.44,5.44c-5.57,5.89-10.69,11.42-15.87,15.87l-2.61,2.61c-5.57,9.98,6.31,19.34,15.68,14.01,2.61-1.48,4.38-4.01,6.85-5.68,3.61-2.44,7.27-3.37,10.84-3.08,3.75.31,7.42,1.96,10.85,4.67,6.55,5.17,21.88,21.15,21.88,21.15l23.98-23.98c4.66-4.66,4.66-12.22,0-16.88l-31.7-31.71Z"/>
    </g>
    <path class="st1" d="M113.5,152.7"/>
  </g>
</svg>