<?xml version="1.0" encoding="UTF-8"?>
<svg id="Layer_1" xmlns="http://www.w3.org/2000/svg" version="1.1" viewBox="0 0 1920 470">
  <!-- Generator: Adobe Illustrator 29.5.1, SVG Export Plug-In . SVG Version: 2.1.0 Build 141)  -->
  <defs>
    <style>
      .st0 {
        fill: #aedee6;
      }

      .st1 {
        fill: #0099b2;
      }
    </style>
  </defs>
  <g>
    <path class="st1" d="M757.78,300.89c0,48.61-38.59,76.77-112.56,76.77h-145.51V96.26h137.49c70.35,0,106.53,29.35,106.53,73.17,0,28.13-14.5,49.85-37.4,61.91,31.37,10.04,51.45,34.16,51.45,69.55ZM564.44,145.3v66.34h64.71c31.76,0,49.05-11.26,49.05-33.39s-17.29-32.95-49.05-32.95h-64.71ZM692.28,294.05c0-23.74-18.09-34.99-51.87-34.99h-75.96v69.57h75.96c33.78,0,51.87-10.46,51.87-34.58Z"/>
    <path class="st1" d="M803.12,96.26c0-19.7,15.69-34.97,39.01-34.97s38.98,14.47,38.98,33.78c0,20.89-15.69,36.16-38.98,36.16s-39.01-15.27-39.01-34.97ZM810.76,161.38h62.71v216.27h-62.71v-216.27Z"/>
    <path class="st1" d="M1160.87,253.83v123.82h-62.71v-114.17c0-34.97-16.1-51.04-43.82-51.04-30.15,0-51.87,18.48-51.87,58.29v106.92h-62.71v-216.27h59.89v25.34c16.9-18.51,42.21-28.55,71.57-28.55,51.04,0,89.66,29.74,89.66,95.66Z"/>
    <path class="st1" d="M1448.24,79.38v298.27h-59.92v-24.9c-15.66,18.87-38.56,28.11-67.55,28.11-61.08,0-108.11-43.43-108.11-111.35s47.03-111.35,108.11-111.35c26.56,0,49.08,8.44,64.73,26.11v-104.9h62.74ZM1386.72,269.51c0-37.37-24.12-59.89-55.05-59.89s-55.49,22.52-55.49,59.89,24.12,59.89,55.49,59.89,55.05-22.52,55.05-59.89Z"/>
    <path class="st1" d="M1724.71,287.19h-163.6c6.03,26.94,28.94,43.43,61.91,43.43,22.91,0,39.39-6.86,54.28-20.91l33.36,36.18c-20.08,22.91-50.24,34.97-89.24,34.97-74.75,0-123.44-47.03-123.44-111.35s49.46-111.35,115.41-111.35,112.54,42.6,112.54,112.15c0,4.84-.77,11.67-1.22,16.87ZM1560.33,250.62h106.51c-4.43-27.33-24.9-45.01-53.06-45.01s-49.02,17.26-53.45,45.01Z"/>
    <path class="st1" d="M1909.95,158.17v57.87c-5.26-.39-9.24-.8-14.05-.8-34.58,0-57.49,18.89-57.49,60.31v102.11h-62.74v-216.27h59.92v28.55c15.27-20.91,41-31.76,74.36-31.76Z"/>
  </g>
  <g>
    <path class="st0" d="M301.09,50.74v171.14h14.88c22.34,0,40.45-18.11,40.45-40.45V52.03c0-22.34-18.11-40.45-40.45-40.45h-54.04c21.63,0,39.16,17.53,39.16,39.16Z"/>
    <path class="st1" d="M325.76,221.88h-24.67V50.74c0-21.63-17.53-39.16-39.16-39.16H9.95v447.05h315.81c22.34,0,40.45-18.11,40.45-40.45v-155.86c0-22.34-18.11-40.45-40.45-40.45Z"/>
  </g>
</svg>