<?xml version="1.0" encoding="UTF-8"?>
<svg id="Layer_1" xmlns="http://www.w3.org/2000/svg" version="1.1" viewBox="0 0 200 200">
  <!-- Generator: Adobe Illustrator 29.5.1, SVG Export Plug-In . SVG Version: 2.1.0 Build 141)  -->
  <defs>
    <style>
      .st0 {
        fill: #fff;
      }

      .st1 {
        fill: #96efff;
      }
    </style>
  </defs>
  <rect class="st0" y="0" width="200" height="200" rx="34.45" ry="34.45"/>
  <g>
    <path class="st1" d="M136.4,77.03h14.95c7.4,0,13.41,6.01,13.41,13.41v39.25c0,7.4-6.01,13.41-13.41,13.41h-14.95v-66.08h0Z"/>
    <path class="st1" d="M137.82,38.95H57.54c-7.94,0-14.38,6.44-14.38,14.38v93.35c0,7.94,6.44,14.38,14.38,14.38h80.28c7.94,0,14.38-6.44,14.38-14.38V53.32c0-7.94-6.44-14.38-14.38-14.38ZM124.31,146.59h-53.25v-16.47c0-9.7,7.86-17.56,17.56-17.56h18.13c9.7,0,17.56,7.86,17.56,17.56v16.47ZM97.68,106.39c-14.71,0-26.63-11.92-26.63-26.63s11.92-26.63,26.63-26.63,26.63,11.92,26.63,26.63-11.92,26.63-26.63,26.63Z"/>
  </g>
</svg>