<?xml version="1.0" encoding="UTF-8"?>
<svg id="Layer_1" xmlns="http://www.w3.org/2000/svg" version="1.1" viewBox="0 0 200 200">
  <!-- Generator: Adobe Illustrator 29.5.1, SVG Export Plug-In . SVG Version: 2.1.0 Build 141)  -->
  <defs>
    <style>
      .st0 {
        fill: #8ad0dc;
      }

      .st1 {
        fill: #fff;
        opacity: 0;
      }
    </style>
  </defs>
  <rect class="st1" width="200" height="200" rx="34.45" ry="34.45"/>
  <path class="st0" d="M145.96,32.13H56.85c-9.27,0-16.79,7.52-16.79,16.79v118.95h119.87V46.11c0-7.72-6.26-13.97-13.97-13.97ZM120.51,137.2c-42.82,17.59-83.38-22.97-65.79-65.79,4.54-11.06,13.41-19.93,24.47-24.47,42.82-17.59,83.38,22.97,65.79,65.79-4.54,11.06-13.41,19.93-24.47,24.47Z"/>
  <path class="st0" d="M89.16,111.59c-.67.26-1.36.38-2.03.38-3.72,0-7.09-3.73-4.95-8.93.24-.58.73-1.01,1.31-1.24l11-4.3-.09-25.77c-.01-3.09,2.49-5.6,5.58-5.6h0c3.08,0,5.59,2.49,5.6,5.58l.12,33.41-16.54,6.46Z"/>
</svg>