<?xml version="1.0" encoding="UTF-8"?>
<svg xmlns="http://www.w3.org/2000/svg" xmlns:xlink="http://www.w3.org/1999/xlink" version="1.1" viewBox="0 0 750 500">
  <!-- Generator: Adobe Illustrator 29.5.1, SVG Export Plug-In . SVG Version: 2.1.0 Build 141)  -->
  <defs>
    <style>
      .st0, .st1, .st2, .st3, .st4, .st5, .st6, .st7, .st8, .st9, .st10, .st11, .st12, .st13, .st14, .st15, .st16, .st17, .st18, .st19, .st20, .st21, .st22, .st23, .st24, .st25, .st26, .st27, .st28, .st29, .st30, .st31, .st32, .st33, .st34, .st35, .st36, .st37, .st38, .st39, .st40, .st41, .st42, .st43, .st44, .st45, .st46, .st47, .st48, .st49, .st50, .st51, .st52, .st53, .st54, .st55, .st56 {
        fill: none;
      }

      .st1 {
        stroke: url(#linear-gradient4);
        stroke-width: 1.92px;
      }

      .st1, .st2, .st3, .st4, .st5, .st6, .st7, .st8, .st9, .st10, .st11, .st12, .st13, .st14, .st15, .st16, .st17, .st18, .st19, .st20, .st21, .st22, .st23, .st24, .st25, .st26, .st27, .st28, .st29, .st30, .st31, .st32, .st33, .st34, .st35, .st36, .st37, .st38, .st39, .st40, .st41, .st42, .st43, .st44, .st45, .st46, .st47, .st48, .st49, .st50, .st51, .st52, .st53, .st54, .st55, .st56 {
        stroke-linecap: round;
        stroke-linejoin: round;
      }

      .st2 {
        stroke: url(#linear-gradient12);
        stroke-width: .77px;
      }

      .st3 {
        stroke: url(#linear-gradient11);
        stroke-width: .91px;
      }

      .st4 {
        stroke: url(#linear-gradient45);
        stroke-width: 1.12px;
      }

      .st5 {
        stroke: url(#linear-gradient44);
        stroke-width: 1.22px;
      }

      .st6 {
        stroke: url(#linear-gradient48);
        stroke-width: .8px;
      }

      .st7 {
        stroke: url(#linear-gradient14);
        stroke-width: .48px;
      }

      .st8 {
        stroke: url(#linear-gradient51);
        stroke-width: .48px;
      }

      .st9 {
        stroke: url(#linear-gradient47);
        stroke-width: .9px;
      }

      .st10 {
        stroke: url(#linear-gradient49);
        stroke-width: .69px;
      }

      .st11 {
        stroke: url(#linear-gradient41);
        stroke-width: 1.54px;
      }

      .st12 {
        stroke: url(#linear-gradient42);
        stroke-width: 1.43px;
      }

      .st13 {
        stroke: url(#linear-gradient10);
        stroke-width: 1.06px;
      }

      .st14 {
        stroke: url(#linear-gradient46);
        stroke-width: 1.01px;
      }

      .st15 {
        stroke: url(#linear-gradient39);
        stroke-width: 1.75px;
      }

      .st16 {
        stroke: url(#linear-gradient43);
        stroke-width: 1.33px;
      }

      .st17 {
        stroke: url(#linear-gradient40);
        stroke-width: 1.65px;
      }

      .st18 {
        stroke: url(#linear-gradient16);
        stroke-width: .19px;
      }

      .st19 {
        stroke: url(#linear-gradient52);
        stroke-width: .37px;
      }

      .st20 {
        stroke: url(#linear-gradient50);
        stroke-width: .58px;
      }

      .st21 {
        stroke: url(#linear-gradient13);
        stroke-width: .63px;
      }

      .st22 {
        stroke: url(#linear-gradient53);
        stroke-width: .26px;
      }

      .st57 {
        fill: url(#radial-gradient);
      }

      .st23 {
        stroke: url(#linear-gradient15);
        stroke-width: .34px;
      }

      .st24 {
        stroke: url(#linear-gradient17);
      }

      .st24, .st25 {
        stroke-width: .05px;
      }

      .st25 {
        stroke: url(#linear-gradient55);
      }

      .st58 {
        isolation: isolate;
      }

      .st26 {
        stroke: url(#linear-gradient31);
        stroke-width: 5px;
      }

      .st26, .st27, .st28, .st29, .st30, .st31, .st32, .st33, .st36, .st37, .st39, .st47, .st50, .st51 {
        stroke-dasharray: 0 12 0 12 0 12;
      }

      .st27 {
        stroke: url(#linear-gradient24);
        stroke-width: 2.44px;
      }

      .st28 {
        stroke: url(#linear-gradient26);
        stroke-width: 3.17px;
      }

      .st29 {
        stroke: url(#linear-gradient27);
        stroke-width: 3.54px;
      }

      .st30 {
        stroke: url(#linear-gradient30);
        stroke-width: 4.63px;
      }

      .st31 {
        stroke: url(#linear-gradient29);
        stroke-width: 4.27px;
      }

      .st32 {
        stroke: url(#linear-gradient25);
        stroke-width: 2.81px;
      }

      .st33 {
        stroke: url(#linear-gradient28);
        stroke-width: 3.9px;
      }

      .st34 {
        stroke: url(#linear-gradient32);
      }

      .st34, .st49 {
        stroke-width: 2.5px;
      }

      .st35 {
        stroke: url(#linear-gradient33);
        stroke-width: 2.39px;
      }

      .st59 {
        mix-blend-mode: overlay;
      }

      .st36 {
        stroke: url(#linear-gradient23);
        stroke-width: 2.08px;
      }

      .st37 {
        stroke: url(#linear-gradient19);
        stroke-width: .62px;
      }

      .st38 {
        stroke: url(#linear-gradient54);
        stroke-width: .16px;
      }

      .st39 {
        stroke: url(#linear-gradient18);
        stroke-width: .25px;
      }

      .st40 {
        stroke: url(#linear-gradient35);
        stroke-width: 2.18px;
      }

      .st41 {
        stroke: url(#linear-gradient36);
        stroke-width: 2.07px;
      }

      .st42 {
        stroke: url(#linear-gradient6);
        stroke-width: 1.64px;
      }

      .st43 {
        stroke: url(#linear-gradient34);
        stroke-width: 2.29px;
      }

      .st44 {
        stroke: url(#linear-gradient8);
        stroke-width: 1.35px;
      }

      .st45 {
        stroke: url(#linear-gradient5);
        stroke-width: 1.78px;
      }

      .st46 {
        stroke: url(#linear-gradient7);
        stroke-width: 1.49px;
      }

      .st47 {
        stroke: url(#linear-gradient21);
        stroke-width: 1.35px;
      }

      .st48 {
        stroke: url(#linear-gradient9);
        stroke-width: 1.2px;
      }

      .st49 {
        stroke: url(#linear-gradient);
      }

      .st50 {
        stroke: url(#linear-gradient20);
        stroke-width: .98px;
      }

      .st51 {
        stroke: url(#linear-gradient22);
        stroke-width: 1.71px;
      }

      .st52 {
        stroke: url(#linear-gradient37);
        stroke-width: 1.97px;
      }

      .st60 {
        fill: url(#radial-gradient1);
      }

      .st60, .st61 {
        mix-blend-mode: color-dodge;
      }

      .st61 {
        fill: url(#radial-gradient2);
      }

      .st53 {
        stroke: url(#linear-gradient3);
        stroke-width: 2.07px;
      }

      .st62 {
        clip-path: url(#clippath);
      }

      .st54 {
        stroke: url(#linear-gradient38);
        stroke-width: 1.86px;
      }

      .st55 {
        stroke: url(#linear-gradient2);
        stroke-width: 2.21px;
      }

      .st56 {
        stroke: url(#linear-gradient1);
        stroke-width: 2.36px;
      }
    </style>
    <radialGradient id="radial-gradient" cx="370.99" cy="213.96" fx="370.99" fy="213.96" r="693.06" gradientUnits="userSpaceOnUse">
      <stop offset="0" stop-color="#481569"/>
      <stop offset=".2" stop-color="#340f50"/>
      <stop offset=".54" stop-color="#18072b"/>
      <stop offset=".82" stop-color="#060115"/>
      <stop offset="1" stop-color="#00000d"/>
    </radialGradient>
    <clipPath id="clippath">
      <rect class="st0" width="750" height="500"/>
    </clipPath>
    <linearGradient id="linear-gradient" x1="-13.6" y1="219.57" x2="858.25" y2="219.57" gradientUnits="userSpaceOnUse">
      <stop offset=".01" stop-color="#904eff"/>
      <stop offset=".36" stop-color="#4c41ff"/>
      <stop offset=".66" stop-color="#55c0ff"/>
      <stop offset=".96" stop-color="#82f4a5"/>
    </linearGradient>
    <linearGradient id="linear-gradient1" x1="-19.19" y1="217.43" x2="859.58" y2="217.43" gradientUnits="userSpaceOnUse">
      <stop offset=".01" stop-color="#8f58fa"/>
      <stop offset=".04" stop-color="#8a57fa"/>
      <stop offset=".34" stop-color="#4f49ff"/>
      <stop offset=".36" stop-color="#4c48ff"/>
      <stop offset=".64" stop-color="#54b2ff"/>
      <stop offset=".66" stop-color="#55b9ff"/>
      <stop offset=".96" stop-color="#83eaaa"/>
      <stop offset=".99" stop-color="#83eaaa"/>
    </linearGradient>
    <linearGradient id="linear-gradient2" x1="-24.79" y1="215.3" x2="860.91" y2="215.3" gradientUnits="userSpaceOnUse">
      <stop offset=".01" stop-color="#8e62f4"/>
      <stop offset=".04" stop-color="#8a61f4"/>
      <stop offset=".34" stop-color="#5051ff"/>
      <stop offset=".36" stop-color="#4d4fff"/>
      <stop offset=".64" stop-color="#53abff"/>
      <stop offset=".66" stop-color="#54b1ff"/>
      <stop offset=".96" stop-color="#83e0b0"/>
      <stop offset=".99" stop-color="#84e0b0"/>
    </linearGradient>
    <linearGradient id="linear-gradient3" x1="-30.38" y1="213.18" x2="862.25" y2="213.18" gradientUnits="userSpaceOnUse">
      <stop offset=".01" stop-color="#8e6bef"/>
      <stop offset=".04" stop-color="#896aef"/>
      <stop offset=".34" stop-color="#5058ff"/>
      <stop offset=".36" stop-color="#4d56ff"/>
      <stop offset=".64" stop-color="#53a4ff"/>
      <stop offset=".66" stop-color="#54aaff"/>
      <stop offset=".96" stop-color="#84d7b5"/>
      <stop offset=".99" stop-color="#84d7b5"/>
    </linearGradient>
    <linearGradient id="linear-gradient4" x1="-35.98" y1="211.08" x2="863.58" y2="211.08" gradientUnits="userSpaceOnUse">
      <stop offset=".01" stop-color="#8d75ea"/>
      <stop offset=".04" stop-color="#8974ea"/>
      <stop offset=".34" stop-color="#5060ff"/>
      <stop offset=".36" stop-color="#4e5dff"/>
      <stop offset=".64" stop-color="#529dff"/>
      <stop offset=".66" stop-color="#54a2ff"/>
      <stop offset=".96" stop-color="#84cdba"/>
      <stop offset=".99" stop-color="#85cdba"/>
    </linearGradient>
    <linearGradient id="linear-gradient5" x1="-41.57" y1="208.99" x2="864.91" y2="208.99" gradientUnits="userSpaceOnUse">
      <stop offset=".01" stop-color="#8c7fe5"/>
      <stop offset=".04" stop-color="#887ee5"/>
      <stop offset=".34" stop-color="#5167ff"/>
      <stop offset=".36" stop-color="#4e64ff"/>
      <stop offset=".64" stop-color="#5296ff"/>
      <stop offset=".66" stop-color="#539bff"/>
      <stop offset=".96" stop-color="#85c3bf"/>
      <stop offset=".99" stop-color="#86c3bf"/>
    </linearGradient>
    <linearGradient id="linear-gradient6" x1="-47.17" y1="206.93" x2="866.24" y2="206.93" gradientUnits="userSpaceOnUse">
      <stop offset=".01" stop-color="#8b89df"/>
      <stop offset=".04" stop-color="#8888df"/>
      <stop offset=".34" stop-color="#516eff"/>
      <stop offset=".36" stop-color="#4f6bff"/>
      <stop offset=".64" stop-color="#518fff"/>
      <stop offset=".66" stop-color="#5394ff"/>
      <stop offset=".96" stop-color="#85b9c5"/>
      <stop offset=".99" stop-color="#87b9c5"/>
    </linearGradient>
    <linearGradient id="linear-gradient7" x1="-52.77" y1="204.91" x2="867.57" y2="204.91" gradientUnits="userSpaceOnUse">
      <stop offset=".01" stop-color="#8a92da"/>
      <stop offset=".04" stop-color="#8792da"/>
      <stop offset=".34" stop-color="#5176ff"/>
      <stop offset=".36" stop-color="#4f72ff"/>
      <stop offset=".64" stop-color="#5188ff"/>
      <stop offset=".66" stop-color="#538cff"/>
      <stop offset=".96" stop-color="#86afca"/>
      <stop offset=".99" stop-color="#88b0ca"/>
    </linearGradient>
    <linearGradient id="linear-gradient8" x1="-58.36" y1="202.92" x2="868.91" y2="202.92" gradientUnits="userSpaceOnUse">
      <stop offset=".01" stop-color="#899cd5"/>
      <stop offset=".04" stop-color="#879cd5"/>
      <stop offset=".34" stop-color="#527dff"/>
      <stop offset=".36" stop-color="#5079ff"/>
      <stop offset=".64" stop-color="#5081ff"/>
      <stop offset=".66" stop-color="#5285ff"/>
      <stop offset=".96" stop-color="#86a5cf"/>
      <stop offset=".99" stop-color="#89a6cf"/>
    </linearGradient>
    <linearGradient id="linear-gradient9" x1="-63.96" y1="200.99" x2="870.24" y2="200.99" gradientUnits="userSpaceOnUse">
      <stop offset=".01" stop-color="#89a6cf"/>
      <stop offset=".04" stop-color="#86a5cf"/>
      <stop offset=".34" stop-color="#5285ff"/>
      <stop offset=".36" stop-color="#5081ff"/>
      <stop offset=".64" stop-color="#5079ff"/>
      <stop offset=".66" stop-color="#527dff"/>
      <stop offset=".96" stop-color="#879cd5"/>
      <stop offset=".99" stop-color="#899cd5"/>
    </linearGradient>
    <linearGradient id="linear-gradient10" x1="-69.55" y1="199.12" x2="871.57" y2="199.12" gradientUnits="userSpaceOnUse">
      <stop offset=".01" stop-color="#88b0ca"/>
      <stop offset=".04" stop-color="#86afca"/>
      <stop offset=".34" stop-color="#538cff"/>
      <stop offset=".36" stop-color="#5188ff"/>
      <stop offset=".64" stop-color="#4f72ff"/>
      <stop offset=".66" stop-color="#5176ff"/>
      <stop offset=".96" stop-color="#8792da"/>
      <stop offset=".99" stop-color="#8a92da"/>
    </linearGradient>
    <linearGradient id="linear-gradient11" x1="-75.15" y1="197.35" x2="872.9" y2="197.35" gradientUnits="userSpaceOnUse">
      <stop offset=".01" stop-color="#87b9c5"/>
      <stop offset=".04" stop-color="#85b9c5"/>
      <stop offset=".34" stop-color="#5394ff"/>
      <stop offset=".36" stop-color="#518fff"/>
      <stop offset=".64" stop-color="#4f6bff"/>
      <stop offset=".66" stop-color="#516eff"/>
      <stop offset=".96" stop-color="#8888df"/>
      <stop offset=".99" stop-color="#8b89df"/>
    </linearGradient>
    <linearGradient id="linear-gradient12" x1="-80.75" y1="195.68" x2="874.24" y2="195.68" gradientUnits="userSpaceOnUse">
      <stop offset=".01" stop-color="#86c3bf"/>
      <stop offset=".04" stop-color="#85c3bf"/>
      <stop offset=".34" stop-color="#539bff"/>
      <stop offset=".36" stop-color="#5296ff"/>
      <stop offset=".64" stop-color="#4e64ff"/>
      <stop offset=".66" stop-color="#5167ff"/>
      <stop offset=".96" stop-color="#887ee5"/>
      <stop offset=".99" stop-color="#8c7fe5"/>
    </linearGradient>
    <linearGradient id="linear-gradient13" x1="-86.34" y1="196.56" x2="875.57" y2="196.56" gradientUnits="userSpaceOnUse">
      <stop offset=".01" stop-color="#85cdba"/>
      <stop offset=".04" stop-color="#84cdba"/>
      <stop offset=".34" stop-color="#54a2ff"/>
      <stop offset=".36" stop-color="#529dff"/>
      <stop offset=".64" stop-color="#4e5dff"/>
      <stop offset=".66" stop-color="#5060ff"/>
      <stop offset=".96" stop-color="#8974ea"/>
      <stop offset=".99" stop-color="#8d75ea"/>
    </linearGradient>
    <linearGradient id="linear-gradient14" x1="-91.94" y1="196.01" x2="876.9" y2="196.01" gradientUnits="userSpaceOnUse">
      <stop offset=".01" stop-color="#84d7b5"/>
      <stop offset=".04" stop-color="#84d7b5"/>
      <stop offset=".34" stop-color="#54aaff"/>
      <stop offset=".36" stop-color="#53a4ff"/>
      <stop offset=".64" stop-color="#4d56ff"/>
      <stop offset=".66" stop-color="#5058ff"/>
      <stop offset=".96" stop-color="#896aef"/>
      <stop offset=".99" stop-color="#8e6bef"/>
    </linearGradient>
    <linearGradient id="linear-gradient15" x1="-97.53" y1="191.1" x2="878.23" y2="191.1" gradientUnits="userSpaceOnUse">
      <stop offset=".01" stop-color="#84e0b0"/>
      <stop offset=".04" stop-color="#83e0b0"/>
      <stop offset=".34" stop-color="#54b1ff"/>
      <stop offset=".36" stop-color="#53abff"/>
      <stop offset=".64" stop-color="#4d4fff"/>
      <stop offset=".66" stop-color="#5051ff"/>
      <stop offset=".96" stop-color="#8a61f4"/>
      <stop offset=".99" stop-color="#8e62f4"/>
    </linearGradient>
    <linearGradient id="linear-gradient16" x1="-103.13" y1="186.34" x2="879.56" y2="186.34" gradientUnits="userSpaceOnUse">
      <stop offset=".01" stop-color="#83eaaa"/>
      <stop offset=".04" stop-color="#83eaaa"/>
      <stop offset=".34" stop-color="#55b9ff"/>
      <stop offset=".36" stop-color="#54b2ff"/>
      <stop offset=".64" stop-color="#4c48ff"/>
      <stop offset=".66" stop-color="#4f49ff"/>
      <stop offset=".96" stop-color="#8a57fa"/>
      <stop offset=".99" stop-color="#8f58fa"/>
    </linearGradient>
    <linearGradient id="linear-gradient17" x1="-108.73" y1="181.72" x2="880.9" y2="181.72" gradientUnits="userSpaceOnUse">
      <stop offset=".04" stop-color="#82f4a5"/>
      <stop offset=".34" stop-color="#55c0ff"/>
      <stop offset=".64" stop-color="#4c41ff"/>
      <stop offset=".99" stop-color="#904eff"/>
    </linearGradient>
    <linearGradient id="linear-gradient18" x1="-16.12" y1="194.68" x2="776.1" y2="194.68" xlink:href="#linear-gradient"/>
    <linearGradient id="linear-gradient19" x1="-15.95" y1="196.88" x2="782.59" y2="196.88" gradientUnits="userSpaceOnUse">
      <stop offset=".01" stop-color="#8f5bf8"/>
      <stop offset=".04" stop-color="#8a5af8"/>
      <stop offset=".36" stop-color="#4e4cfd"/>
      <stop offset=".52" stop-color="#5189ff"/>
      <stop offset=".66" stop-color="#5bf"/>
      <stop offset=".79" stop-color="#67cbda"/>
      <stop offset=".96" stop-color="#82e7ac"/>
      <stop offset=".99" stop-color="#83e7ac"/>
    </linearGradient>
    <linearGradient id="linear-gradient20" x1="-15.77" y1="203.53" x2="789.08" y2="203.53" gradientUnits="userSpaceOnUse">
      <stop offset=".01" stop-color="#8e68f1"/>
      <stop offset=".04" stop-color="#8a67f1"/>
      <stop offset=".36" stop-color="#5057fa"/>
      <stop offset=".52" stop-color="#528dff"/>
      <stop offset=".66" stop-color="#54b6ff"/>
      <stop offset=".79" stop-color="#65c0dd"/>
      <stop offset=".96" stop-color="#83dab3"/>
      <stop offset=".99" stop-color="#84dab3"/>
    </linearGradient>
    <linearGradient id="linear-gradient21" x1="-15.6" y1="210.14" x2="795.58" y2="210.14" gradientUnits="userSpaceOnUse">
      <stop offset=".01" stop-color="#8d74ea"/>
      <stop offset=".04" stop-color="#8974ea"/>
      <stop offset=".36" stop-color="#5262f8"/>
      <stop offset=".52" stop-color="#5292ff"/>
      <stop offset=".66" stop-color="#54b1ff"/>
      <stop offset=".79" stop-color="#62b4e0"/>
      <stop offset=".96" stop-color="#83cdba"/>
      <stop offset=".99" stop-color="#85ceba"/>
    </linearGradient>
    <linearGradient id="linear-gradient22" x1="-15.42" y1="211.06" x2="802.07" y2="211.06" gradientUnits="userSpaceOnUse">
      <stop offset=".01" stop-color="#8c81e3"/>
      <stop offset=".04" stop-color="#8880e3"/>
      <stop offset=".36" stop-color="#536df6"/>
      <stop offset=".52" stop-color="#5296ff"/>
      <stop offset=".66" stop-color="#53acff"/>
      <stop offset=".79" stop-color="#60a9e3"/>
      <stop offset=".96" stop-color="#83c0c1"/>
      <stop offset=".99" stop-color="#86c1c1"/>
    </linearGradient>
    <linearGradient id="linear-gradient23" x1="-15.25" y1="212.06" x2="808.56" y2="212.06" gradientUnits="userSpaceOnUse">
      <stop offset=".01" stop-color="#8b8edc"/>
      <stop offset=".04" stop-color="#888ddc"/>
      <stop offset=".36" stop-color="#5578f3"/>
      <stop offset=".52" stop-color="#539bff"/>
      <stop offset=".66" stop-color="#53a7ff"/>
      <stop offset=".79" stop-color="#5e9de6"/>
      <stop offset=".96" stop-color="#84b3c8"/>
      <stop offset=".99" stop-color="#87b4c8"/>
    </linearGradient>
    <linearGradient id="linear-gradient24" x1="-15.07" y1="213.14" x2="815.05" y2="213.14" gradientUnits="userSpaceOnUse">
      <stop offset=".01" stop-color="#8a9bd5"/>
      <stop offset=".04" stop-color="#879ad5"/>
      <stop offset=".36" stop-color="#5783f1"/>
      <stop offset=".52" stop-color="#53a0ff"/>
      <stop offset=".66" stop-color="#53a2ff"/>
      <stop offset=".79" stop-color="#5c92e9"/>
      <stop offset=".96" stop-color="#84a6cf"/>
      <stop offset=".99" stop-color="#88a7cf"/>
    </linearGradient>
    <linearGradient id="linear-gradient25" x1="-14.9" y1="214.27" x2="821.55" y2="214.27" gradientUnits="userSpaceOnUse">
      <stop offset=".01" stop-color="#88a7cf"/>
      <stop offset=".04" stop-color="#86a7cf"/>
      <stop offset=".36" stop-color="#598fef"/>
      <stop offset=".52" stop-color="#53a4ff"/>
      <stop offset=".66" stop-color="#529dff"/>
      <stop offset=".79" stop-color="#5986ed"/>
      <stop offset=".96" stop-color="#849ad5"/>
      <stop offset=".99" stop-color="#8a9bd5"/>
    </linearGradient>
    <linearGradient id="linear-gradient26" x1="-14.72" y1="215.42" x2="828.04" y2="215.42" gradientUnits="userSpaceOnUse">
      <stop offset=".01" stop-color="#87b4c8"/>
      <stop offset=".04" stop-color="#85b4c8"/>
      <stop offset=".36" stop-color="#5b9aed"/>
      <stop offset=".52" stop-color="#53a9ff"/>
      <stop offset=".66" stop-color="#5298ff"/>
      <stop offset=".79" stop-color="#577bf0"/>
      <stop offset=".96" stop-color="#848ddc"/>
      <stop offset=".99" stop-color="#8b8edc"/>
    </linearGradient>
    <linearGradient id="linear-gradient27" x1="-14.55" y1="216.62" x2="834.53" y2="216.62" gradientUnits="userSpaceOnUse">
      <stop offset=".01" stop-color="#86c1c1"/>
      <stop offset=".04" stop-color="#85c1c1"/>
      <stop offset=".36" stop-color="#5da5ea"/>
      <stop offset=".52" stop-color="#54aeff"/>
      <stop offset=".66" stop-color="#5293ff"/>
      <stop offset=".79" stop-color="#556ff3"/>
      <stop offset=".96" stop-color="#8580e3"/>
      <stop offset=".99" stop-color="#8c81e3"/>
    </linearGradient>
    <linearGradient id="linear-gradient28" x1="-14.37" y1="217.83" x2="841.02" y2="217.83" gradientUnits="userSpaceOnUse">
      <stop offset=".01" stop-color="#85ceba"/>
      <stop offset=".04" stop-color="#84cdba"/>
      <stop offset=".36" stop-color="#5eb0e8"/>
      <stop offset=".52" stop-color="#54b2ff"/>
      <stop offset=".66" stop-color="#518eff"/>
      <stop offset=".79" stop-color="#5364f6"/>
      <stop offset=".96" stop-color="#8573ea"/>
      <stop offset=".99" stop-color="#8d74ea"/>
    </linearGradient>
    <linearGradient id="linear-gradient29" x1="-14.2" y1="219.07" x2="847.51" y2="219.07" gradientUnits="userSpaceOnUse">
      <stop offset=".01" stop-color="#84dab3"/>
      <stop offset=".04" stop-color="#83dab3"/>
      <stop offset=".36" stop-color="#60bbe6"/>
      <stop offset=".52" stop-color="#54b7ff"/>
      <stop offset=".66" stop-color="#5189ff"/>
      <stop offset=".79" stop-color="#5058f9"/>
      <stop offset=".96" stop-color="#8566f1"/>
      <stop offset=".99" stop-color="#8e68f1"/>
    </linearGradient>
    <linearGradient id="linear-gradient30" x1="-14.02" y1="220.31" x2="854.01" y2="220.31" gradientUnits="userSpaceOnUse">
      <stop offset=".01" stop-color="#83e7ac"/>
      <stop offset=".04" stop-color="#83e7ac"/>
      <stop offset=".36" stop-color="#62c6e3"/>
      <stop offset=".52" stop-color="#5bf"/>
      <stop offset=".66" stop-color="#5084ff"/>
      <stop offset=".79" stop-color="#4e4dfc"/>
      <stop offset=".96" stop-color="#8659f8"/>
      <stop offset=".99" stop-color="#8f5bf8"/>
    </linearGradient>
    <linearGradient id="linear-gradient31" x1="-13.85" y1="221.57" x2="860.5" y2="221.57" gradientUnits="userSpaceOnUse">
      <stop offset=".04" stop-color="#82f4a5"/>
      <stop offset=".52" stop-color="#55c0ff"/>
      <stop offset=".79" stop-color="#4c41ff"/>
      <stop offset=".99" stop-color="#904eff"/>
    </linearGradient>
    <linearGradient id="linear-gradient32" x1="-12.6" y1="221.57" x2="859.25" y2="221.57" gradientUnits="userSpaceOnUse">
      <stop offset=".06" stop-color="#82f4a5"/>
      <stop offset=".26" stop-color="#55c0ff"/>
      <stop offset=".48" stop-color="#4c41ff"/>
      <stop offset=".76" stop-color="#904eff"/>
      <stop offset=".94" stop-color="#de18ff"/>
    </linearGradient>
    <linearGradient id="linear-gradient33" x1="-14.32" y1="225.77" x2="854.86" y2="225.77" gradientUnits="userSpaceOnUse">
      <stop offset=".01" stop-color="#83eda9"/>
      <stop offset=".06" stop-color="#82eda9"/>
      <stop offset=".26" stop-color="#5bf"/>
      <stop offset=".36" stop-color="#5182ff"/>
      <stop offset=".48" stop-color="#4c43ff"/>
      <stop offset=".66" stop-color="#764eff"/>
      <stop offset=".76" stop-color="#8e54fe"/>
      <stop offset=".94" stop-color="#da21fb"/>
      <stop offset=".96" stop-color="#da22fb"/>
    </linearGradient>
    <linearGradient id="linear-gradient34" x1="-16.05" y1="229.97" x2="850.47" y2="229.97" gradientUnits="userSpaceOnUse">
      <stop offset=".01" stop-color="#83e6ad"/>
      <stop offset=".06" stop-color="#82e5ad"/>
      <stop offset=".26" stop-color="#56b5ff"/>
      <stop offset=".36" stop-color="#517fff"/>
      <stop offset=".48" stop-color="#4c45ff"/>
      <stop offset=".66" stop-color="#7553ff"/>
      <stop offset=".76" stop-color="#8c59fc"/>
      <stop offset=".94" stop-color="#d62bf8"/>
      <stop offset=".96" stop-color="#d62bf7"/>
    </linearGradient>
    <linearGradient id="linear-gradient35" x1="-17.77" y1="234.18" x2="846.07" y2="234.18" gradientUnits="userSpaceOnUse">
      <stop offset=".01" stop-color="#84deb1"/>
      <stop offset=".06" stop-color="#83deb1"/>
      <stop offset=".26" stop-color="#56b0ff"/>
      <stop offset=".36" stop-color="#507cff"/>
      <stop offset=".48" stop-color="#4d48ff"/>
      <stop offset=".66" stop-color="#7359ff"/>
      <stop offset=".76" stop-color="#8a5ffb"/>
      <stop offset=".94" stop-color="#d234f4"/>
      <stop offset=".96" stop-color="#d235f3"/>
    </linearGradient>
    <linearGradient id="linear-gradient36" x1="-19.5" y1="238.4" x2="841.68" y2="238.4" gradientUnits="userSpaceOnUse">
      <stop offset=".01" stop-color="#84d7b5"/>
      <stop offset=".06" stop-color="#83d7b5"/>
      <stop offset=".26" stop-color="#57abff"/>
      <stop offset=".36" stop-color="#5079ff"/>
      <stop offset=".48" stop-color="#4d4aff"/>
      <stop offset=".66" stop-color="#725eff"/>
      <stop offset=".76" stop-color="#8865fa"/>
      <stop offset=".94" stop-color="#cd3ef0"/>
      <stop offset=".96" stop-color="#ce3eef"/>
    </linearGradient>
    <linearGradient id="linear-gradient37" x1="-21.23" y1="242.63" x2="837.29" y2="242.63" gradientUnits="userSpaceOnUse">
      <stop offset=".01" stop-color="#85d0b9"/>
      <stop offset=".06" stop-color="#83cfb9"/>
      <stop offset=".26" stop-color="#57a5ff"/>
      <stop offset=".36" stop-color="#5076ff"/>
      <stop offset=".48" stop-color="#4d4cff"/>
      <stop offset=".66" stop-color="#7063ff"/>
      <stop offset=".76" stop-color="#866af8"/>
      <stop offset=".94" stop-color="#c947ed"/>
      <stop offset=".96" stop-color="#ca48eb"/>
    </linearGradient>
    <linearGradient id="linear-gradient38" x1="-22.95" y1="246.88" x2="832.9" y2="246.88" gradientUnits="userSpaceOnUse">
      <stop offset=".01" stop-color="#86c9bc"/>
      <stop offset=".06" stop-color="#83c8bc"/>
      <stop offset=".26" stop-color="#58a0ff"/>
      <stop offset=".36" stop-color="#5073ff"/>
      <stop offset=".48" stop-color="#4d4eff"/>
      <stop offset=".66" stop-color="#6f68ff"/>
      <stop offset=".76" stop-color="#8570f7"/>
      <stop offset=".94" stop-color="#c551e9"/>
      <stop offset=".96" stop-color="#c651e8"/>
    </linearGradient>
    <linearGradient id="linear-gradient39" x1="-24.68" y1="251.15" x2="828.5" y2="251.15" gradientUnits="userSpaceOnUse">
      <stop offset=".01" stop-color="#86c1c0"/>
      <stop offset=".06" stop-color="#84c1c0"/>
      <stop offset=".26" stop-color="#589bff"/>
      <stop offset=".36" stop-color="#4f70ff"/>
      <stop offset=".48" stop-color="#4d50ff"/>
      <stop offset=".66" stop-color="#6d6dff"/>
      <stop offset=".76" stop-color="#8376f6"/>
      <stop offset=".94" stop-color="#c15ae5"/>
      <stop offset=".96" stop-color="#c25be4"/>
    </linearGradient>
    <linearGradient id="linear-gradient40" x1="-26.4" y1="255.48" x2="824.11" y2="255.48" gradientUnits="userSpaceOnUse">
      <stop offset=".01" stop-color="#87bac4"/>
      <stop offset=".06" stop-color="#84bac4"/>
      <stop offset=".26" stop-color="#5995ff"/>
      <stop offset=".36" stop-color="#4f6dff"/>
      <stop offset=".48" stop-color="#4d52ff"/>
      <stop offset=".66" stop-color="#6c72ff"/>
      <stop offset=".76" stop-color="#817cf5"/>
      <stop offset=".94" stop-color="#bd63e1"/>
      <stop offset=".96" stop-color="#be65e0"/>
    </linearGradient>
    <linearGradient id="linear-gradient41" x1="-28.13" y1="260.01" x2="819.72" y2="260.01" gradientUnits="userSpaceOnUse">
      <stop offset=".01" stop-color="#87b3c8"/>
      <stop offset=".06" stop-color="#84b2c8"/>
      <stop offset=".26" stop-color="#5990ff"/>
      <stop offset=".36" stop-color="#4f6aff"/>
      <stop offset=".48" stop-color="#4e55ff"/>
      <stop offset=".66" stop-color="#6a78ff"/>
      <stop offset=".76" stop-color="#7f81f3"/>
      <stop offset=".94" stop-color="#b96dde"/>
      <stop offset=".96" stop-color="#ba6edc"/>
    </linearGradient>
    <linearGradient id="linear-gradient42" x1="-29.86" y1="265.13" x2="815.33" y2="265.13" gradientUnits="userSpaceOnUse">
      <stop offset=".01" stop-color="#88accc"/>
      <stop offset=".06" stop-color="#84abcc"/>
      <stop offset=".26" stop-color="#5a8bff"/>
      <stop offset=".36" stop-color="#4f67ff"/>
      <stop offset=".48" stop-color="#4e57ff"/>
      <stop offset=".66" stop-color="#697dff"/>
      <stop offset=".76" stop-color="#7d87f2"/>
      <stop offset=".94" stop-color="#b576da"/>
      <stop offset=".96" stop-color="#b678d8"/>
    </linearGradient>
    <linearGradient id="linear-gradient43" x1="-31.58" y1="271.35" x2="810.93" y2="271.35" gradientUnits="userSpaceOnUse">
      <stop offset=".01" stop-color="#89a5d0"/>
      <stop offset=".06" stop-color="#84a4d0"/>
      <stop offset=".26" stop-color="#5a85ff"/>
      <stop offset=".36" stop-color="#4f64ff"/>
      <stop offset=".48" stop-color="#4e59ff"/>
      <stop offset=".66" stop-color="#6782ff"/>
      <stop offset=".76" stop-color="#7b8df1"/>
      <stop offset=".94" stop-color="#b180d6"/>
      <stop offset=".96" stop-color="#b281d4"/>
    </linearGradient>
    <linearGradient id="linear-gradient44" x1="-33.31" y1="278.87" x2="806.54" y2="278.87" gradientUnits="userSpaceOnUse">
      <stop offset=".01" stop-color="#899dd4"/>
      <stop offset=".06" stop-color="#859cd4"/>
      <stop offset=".26" stop-color="#5b80ff"/>
      <stop offset=".36" stop-color="#4e62ff"/>
      <stop offset=".48" stop-color="#4e5bff"/>
      <stop offset=".66" stop-color="#6687ff"/>
      <stop offset=".76" stop-color="#7992ef"/>
      <stop offset=".94" stop-color="#ac89d3"/>
      <stop offset=".96" stop-color="#ae8bd0"/>
    </linearGradient>
    <linearGradient id="linear-gradient45" x1="-35.04" y1="286.97" x2="802.15" y2="286.97" gradientUnits="userSpaceOnUse">
      <stop offset=".01" stop-color="#8a96d8"/>
      <stop offset=".06" stop-color="#8595d8"/>
      <stop offset=".26" stop-color="#5b7aff"/>
      <stop offset=".36" stop-color="#4e5fff"/>
      <stop offset=".48" stop-color="#4e5dff"/>
      <stop offset=".66" stop-color="#648cff"/>
      <stop offset=".76" stop-color="#7798ee"/>
      <stop offset=".94" stop-color="#a893cf"/>
      <stop offset=".96" stop-color="#aa94cc"/>
    </linearGradient>
    <linearGradient id="linear-gradient46" x1="-36.76" y1="295.39" x2="797.76" y2="295.39" gradientUnits="userSpaceOnUse">
      <stop offset=".01" stop-color="#8b8fdc"/>
      <stop offset=".06" stop-color="#858edc"/>
      <stop offset=".26" stop-color="#5c75ff"/>
      <stop offset=".36" stop-color="#4e5cff"/>
      <stop offset=".48" stop-color="#4e5fff"/>
      <stop offset=".66" stop-color="#6391ff"/>
      <stop offset=".76" stop-color="#759eed"/>
      <stop offset=".94" stop-color="#a49ccb"/>
      <stop offset=".96" stop-color="#a69ec8"/>
    </linearGradient>
    <linearGradient id="linear-gradient47" x1="-38.49" y1="302.26" x2="793.36" y2="302.26" gradientUnits="userSpaceOnUse">
      <stop offset=".01" stop-color="#8b88e0"/>
      <stop offset=".06" stop-color="#8586e0"/>
      <stop offset=".26" stop-color="#5c70ff"/>
      <stop offset=".36" stop-color="#4e59ff"/>
      <stop offset=".48" stop-color="#4f62ff"/>
      <stop offset=".66" stop-color="#6197ff"/>
      <stop offset=".76" stop-color="#73a3eb"/>
      <stop offset=".94" stop-color="#a0a6c8"/>
      <stop offset=".96" stop-color="#a2a7c4"/>
    </linearGradient>
    <linearGradient id="linear-gradient48" x1="-40.21" y1="304.93" x2="788.97" y2="304.93" gradientUnits="userSpaceOnUse">
      <stop offset=".01" stop-color="#8c81e4"/>
      <stop offset=".06" stop-color="#857fe4"/>
      <stop offset=".26" stop-color="#5d6aff"/>
      <stop offset=".36" stop-color="#4e56ff"/>
      <stop offset=".48" stop-color="#4f64ff"/>
      <stop offset=".66" stop-color="#609cff"/>
      <stop offset=".76" stop-color="#71a9ea"/>
      <stop offset=".94" stop-color="#9cafc4"/>
      <stop offset=".96" stop-color="#9eb1c0"/>
    </linearGradient>
    <linearGradient id="linear-gradient49" x1="-41.94" y1="307.69" x2="784.58" y2="307.69" gradientUnits="userSpaceOnUse">
      <stop offset=".01" stop-color="#8c79e8"/>
      <stop offset=".06" stop-color="#8678e8"/>
      <stop offset=".26" stop-color="#5d65ff"/>
      <stop offset=".36" stop-color="#4d53ff"/>
      <stop offset=".48" stop-color="#4f66ff"/>
      <stop offset=".66" stop-color="#5ea1ff"/>
      <stop offset=".76" stop-color="#6fafe9"/>
      <stop offset=".94" stop-color="#98b8c0"/>
      <stop offset=".96" stop-color="#9abbbc"/>
    </linearGradient>
    <linearGradient id="linear-gradient50" x1="-43.67" y1="310.53" x2="780.19" y2="310.53" gradientUnits="userSpaceOnUse">
      <stop offset=".01" stop-color="#8d72eb"/>
      <stop offset=".06" stop-color="#8671eb"/>
      <stop offset=".26" stop-color="#5e60ff"/>
      <stop offset=".36" stop-color="#4d50ff"/>
      <stop offset=".48" stop-color="#4f68ff"/>
      <stop offset=".66" stop-color="#5da6ff"/>
      <stop offset=".76" stop-color="#6eb5e8"/>
      <stop offset=".94" stop-color="#94c2bc"/>
      <stop offset=".96" stop-color="#96c4b9"/>
    </linearGradient>
    <linearGradient id="linear-gradient51" x1="-45.39" y1="313.43" x2="775.79" y2="313.43" gradientUnits="userSpaceOnUse">
      <stop offset=".01" stop-color="#8e6bef"/>
      <stop offset=".06" stop-color="#8669ef"/>
      <stop offset=".26" stop-color="#5e5aff"/>
      <stop offset=".36" stop-color="#4d4dff"/>
      <stop offset=".48" stop-color="#4f6aff"/>
      <stop offset=".66" stop-color="#5babff"/>
      <stop offset=".76" stop-color="#6cbae6"/>
      <stop offset=".94" stop-color="#90cbb9"/>
      <stop offset=".96" stop-color="#92ceb5"/>
    </linearGradient>
    <linearGradient id="linear-gradient52" x1="-47.12" y1="316.38" x2="771.4" y2="316.38" gradientUnits="userSpaceOnUse">
      <stop offset=".01" stop-color="#8e64f3"/>
      <stop offset=".06" stop-color="#8662f3"/>
      <stop offset=".26" stop-color="#5f55ff"/>
      <stop offset=".36" stop-color="#4d4aff"/>
      <stop offset=".48" stop-color="#4f6cff"/>
      <stop offset=".66" stop-color="#5ab0ff"/>
      <stop offset=".76" stop-color="#6ac0e5"/>
      <stop offset=".94" stop-color="#8bd5b5"/>
      <stop offset=".96" stop-color="#8ed7b1"/>
    </linearGradient>
    <linearGradient id="linear-gradient53" x1="-48.84" y1="319.37" x2="767.01" y2="319.37" gradientUnits="userSpaceOnUse">
      <stop offset=".01" stop-color="#8f5cf7"/>
      <stop offset=".06" stop-color="#875bf7"/>
      <stop offset=".26" stop-color="#5f50ff"/>
      <stop offset=".36" stop-color="#4c47ff"/>
      <stop offset=".48" stop-color="#506fff"/>
      <stop offset=".66" stop-color="#58b6ff"/>
      <stop offset=".76" stop-color="#68c6e4"/>
      <stop offset=".94" stop-color="#87deb1"/>
      <stop offset=".96" stop-color="#8ae1ad"/>
    </linearGradient>
    <linearGradient id="linear-gradient54" x1="-50.57" y1="322.39" x2="762.62" y2="322.39" gradientUnits="userSpaceOnUse">
      <stop offset=".01" stop-color="#8f55fb"/>
      <stop offset=".06" stop-color="#8753fb"/>
      <stop offset=".26" stop-color="#604aff"/>
      <stop offset=".36" stop-color="#4c44ff"/>
      <stop offset=".48" stop-color="#5071ff"/>
      <stop offset=".66" stop-color="#57bbff"/>
      <stop offset=".76" stop-color="#66cbe2"/>
      <stop offset=".94" stop-color="#83e8ae"/>
      <stop offset=".96" stop-color="#86eaa9"/>
    </linearGradient>
    <linearGradient id="linear-gradient55" x1="-52.3" y1="325.43" x2="758.22" y2="325.43" xlink:href="#linear-gradient"/>
    <radialGradient id="radial-gradient1" cx="1278.52" cy="-4154.44" fx="1278.52" fy="-4154.44" r="51.5" gradientTransform="translate(-1169.26 1720.14) rotate(-16.26) scale(1.69 .21) skewX(.03)" gradientUnits="userSpaceOnUse">
      <stop offset=".03" stop-color="#fff"/>
      <stop offset=".03" stop-color="#fefeff" stop-opacity="1"/>
      <stop offset=".2" stop-color="#e3d7ff" stop-opacity=".74"/>
      <stop offset=".36" stop-color="#ccb5ff" stop-opacity=".51"/>
      <stop offset=".51" stop-color="#b99aff" stop-opacity=".33"/>
      <stop offset=".65" stop-color="#ab84ff" stop-opacity=".19"/>
      <stop offset=".79" stop-color="#a075ff" stop-opacity=".08"/>
      <stop offset=".91" stop-color="#9a6cff" stop-opacity=".02"/>
      <stop offset="1" stop-color="#9869ff" stop-opacity="0"/>
    </radialGradient>
    <radialGradient id="radial-gradient2" cx="699.02" cy="198.75" fx="699.02" fy="198.75" r="38.02" gradientTransform="translate(301.4 -794.2) rotate(90.05) scale(1.69 .61) skewX(-.11)" xlink:href="#radial-gradient1"/>
  </defs>
  <g class="st58">
    <g id="BACKGROUND">
      <rect class="st57" width="750" height="500"/>
    </g>
    <g id="OBJECTS">
      <g class="st62">
        <g>
          <g class="st59">
            <path class="st49" d="M-12.35,50c9.18,27.46,37.53,44.59,65.95,51,36.32,8.19,70.96-3.54,103.34,18.06,27.81,18.55-.65,75.56-9.56,99.05-10.66,28.1-19.06,57.88-16.5,87.8,2.56,29.92,17.84,60.15,44.63,74.11,26.47,13.79,58.62,9.69,87.62,2.44,34.93-8.74,69.12-21.7,98.92-41.77,39.06-26.31,69.14-63.75,106.22-92.74,37.08-28.99,86.67-49.6,131.21-34.06,14.35,5.01,27.19,13.46,40.65,20.48,66.9,34.9,152.05,32.52,216.87-6.05"/>
            <path class="st56" d="M-18.01,55.01c9.73,25.93,37.51,42.16,65.35,48.37,21,4.69,41.44,2.86,61.2,4.91,13.64,1.41,26.96,4.68,39.91,13.22,27.4,18.03,1.96,72.57-5.83,95.65-9.2,27.25-17.07,56.04-13.77,84.67,3.33,28.87,19.24,57.15,45.67,69.94,26.13,12.64,57.59,8.27,86.14,1.48,34.45-8.17,67.83-19.79,97.52-37.74,26.33-15.92,49.46-36.44,73.08-57,11.8-10.28,23.87-20.9,36.35-30.63,30.69-23.92,68.57-43.35,105.96-42.41,8.3.22,16.58,1.44,24.72,3.84,14.44,4.24,27.53,11.85,41.24,18.28,7.05,3.31,14.28,6.28,21.66,8.92,32.01,11.45,66.66,16.66,100.79,14.34,34.06-2.32,67.87-12.31,96.45-30.54"/>
            <path class="st55" d="M-23.68,60.03c10.29,24.41,37.5,39.73,64.74,45.74,20.52,4.54,40.5,3,59.83,5.18,13.34,1.5,26.38,4.77,39.04,13.02,26.99,17.52,4.57,69.55-2.1,92.26-7.75,26.38-15.07,54.19-11.04,81.54,4.1,27.82,20.64,54.15,46.71,65.78,25.79,11.48,56.56,6.84,84.67.52,33.96-7.61,66.58-17.86,96.11-33.71,26.67-14.31,50.85-32.88,75.29-52.36,12.2-9.74,24.74-20.37,37.35-30.16,31.05-24.12,68.09-44.87,105.41-45.7,8.28-.17,16.56.65,24.74,2.61,14.53,3.46,27.87,10.24,41.82,16.08,7.17,3,14.53,5.73,22.02,8.2,32.49,10.7,67.4,16.39,101.87,14.42,34.41-1.97,68.92-11.95,97.05-31.13"/>
            <path class="st53" d="M-29.35,65.04c10.84,22.88,37.48,37.29,64.13,43.11,20.04,4.38,39.57,3.15,58.47,5.44,13.04,1.58,25.79,4.86,38.17,12.83,26.57,17,7.17,66.51,1.63,88.86-6.31,25.47-13.07,52.36-8.31,78.41,4.89,26.78,22.04,51.15,47.75,61.62,25.45,10.33,55.53,5.41,83.19-.44,33.48-7.04,65.39-15.91,94.71-29.67,27.05-12.7,52.23-29.31,77.5-47.71,12.59-9.21,25.62-19.84,38.34-29.69,31.4-24.32,67.61-46.4,104.86-48.99,8.25-.56,16.54-.14,24.77,1.39,14.62,2.69,28.21,8.63,42.4,13.87,7.29,2.7,14.77,5.19,22.37,7.48,32.98,9.95,68.13,16.13,102.94,14.5,34.75-1.63,69.97-11.59,97.65-31.72"/>
            <path class="st1" d="M-35.02,70.05c11.4,21.35,37.47,34.86,63.53,40.48,19.56,4.23,38.63,3.29,57.1,5.71,12.75,1.67,25.2,4.95,37.3,12.63,26.16,16.49,9.77,63.44,5.36,85.47-4.91,24.54-11.05,50.53-5.59,75.28,5.68,25.76,23.44,48.15,48.79,57.45,25.1,9.17,54.5,3.98,81.72-1.4,33-6.47,64.24-13.94,93.3-25.64,27.48-11.07,53.62-25.74,79.71-43.07,12.99-8.67,26.49-19.3,39.34-29.23,31.76-24.52,67.14-47.92,104.31-52.28,8.23-.94,16.53-.93,24.79.16,14.71,1.91,28.55,7.02,42.98,11.67,7.42,2.39,15.01,4.64,22.73,6.76,33.46,9.21,68.87,15.86,104.02,14.57,35.1-1.28,71.02-11.23,98.25-32.31"/>
            <path class="st45" d="M-40.69,75.07c11.95,19.83,37.45,32.43,62.92,37.85,19.08,4.07,37.7,3.43,55.73,5.97,12.45,1.75,24.62,5.04,36.44,12.44,25.75,15.97,12.34,60.35,9.09,82.07-3.53,23.59-9.01,48.71-2.86,72.15,6.49,24.74,24.84,45.16,49.83,53.29,24.76,8.02,53.47,2.55,80.24-2.36,32.52-5.91,63.13-11.92,91.89-21.61,27.95-9.41,55-22.17,81.92-38.43,13.39-8.13,27.37-18.77,40.33-28.76,32.11-24.72,66.66-49.44,103.75-55.57,8.2-1.33,16.51-1.73,24.81-1.06,14.8,1.14,28.89,5.41,43.56,9.47,7.54,2.09,15.25,4.1,23.08,6.05,33.94,8.46,69.6,15.6,105.1,14.65,35.45-.94,72.06-10.87,98.85-32.91"/>
            <path class="st42" d="M-46.35,80.08c12.5,18.3,37.43,30,62.32,35.22,18.6,3.92,36.76,3.57,54.37,6.24,12.15,1.84,24.02,5.16,35.57,12.24,25.3,15.52,14.9,57.22,12.83,78.68-2.19,22.6-6.95,46.89-.13,69.02,7.32,23.72,26.24,42.16,50.87,49.13,24.42,6.86,52.44,1.12,78.77-3.32,32.04-5.34,62.07-9.86,90.49-17.57,28.45-7.73,56.39-18.6,84.13-33.79,13.78-7.59,28.24-18.24,41.33-28.29,32.47-24.93,66.18-50.96,103.2-58.86,8.18-1.71,16.49-2.52,24.84-2.29,14.89.36,29.23,3.8,44.14,7.26,7.66,1.78,15.5,3.55,23.44,5.33,34.42,7.71,70.33,15.33,106.17,14.73,35.79-.6,73.11-10.51,99.45-33.5"/>
            <path class="st46" d="M-52.02,85.09c13.06,16.78,37.42,27.57,61.71,32.59,18.12,3.76,35.83,3.71,53,6.5,11.85,1.92,23.43,5.25,34.7,12.05,24.88,15.01,17.43,54.08,16.56,75.28-.89,21.6-4.88,45.07,2.6,65.89,8.16,22.71,27.64,39.16,51.91,44.96,24.08,5.71,51.41-.31,77.3-4.28,31.55-4.78,61.05-7.74,89.08-13.54,29-6,57.77-15.03,86.35-29.15,14.18-7.05,29.12-17.71,42.32-27.82,32.82-25.13,65.7-52.49,102.65-62.15,8.15-2.1,16.48-3.31,24.86-3.51,14.97-.41,29.57,2.19,44.72,5.06,7.79,1.48,15.74,3.01,23.79,4.61,34.91,6.96,71.07,15.06,107.25,14.81,36.14-.25,74.16-10.15,100.05-34.09"/>
            <path class="st44" d="M-57.69,90.11c13.61,15.25,37.4,25.13,61.1,29.97,17.64,3.61,34.89,3.85,51.64,6.77,11.55,2.01,22.84,5.34,33.83,11.85,24.47,14.5,19.92,50.91,20.29,71.89.36,20.57-2.78,43.26,5.33,62.76,9.02,21.71,29.05,36.16,52.95,40.8,23.73,4.55,50.38-1.74,75.82-5.24,31.07-4.21,60.04-5.56,87.68-9.51,29.56-4.22,59.16-11.46,88.56-24.5,14.58-6.51,29.99-17.18,43.32-27.35,33.18-25.33,65.22-54.01,102.1-65.44,8.12-2.49,16.46-4.1,24.89-4.73,15.06-1.19,29.91.58,45.31,2.86,7.91,1.17,15.98,2.46,24.15,3.89,35.39,6.21,71.8,14.8,108.33,14.89,36.49.09,75.21-9.79,100.65-34.68"/>
            <path class="st48" d="M-63.36,95.12c14.16,13.73,37.39,22.7,60.5,27.34,17.15,3.45,33.95,3.99,50.27,7.04,11.25,2.09,22.26,5.43,32.96,11.66,24.05,13.98,22.36,47.73,24.02,68.49,1.56,19.53-.66,41.44,8.06,59.63,9.91,20.7,30.45,33.16,53.99,36.64,23.39,3.4,49.35-3.16,74.35-6.2,30.59-3.64,59.06-3.33,86.27-5.47,30.14-2.37,60.54-7.89,90.77-19.86,14.97-5.97,30.87-16.64,44.31-26.88,33.53-25.53,64.74-55.53,101.55-68.73,8.1-2.87,16.44-4.89,24.91-5.96,15.15-1.96,30.25-1.03,45.89.65,8.04.87,16.23,1.92,24.5,3.18,35.87,5.46,72.54,14.53,109.4,14.97,36.83.44,76.26-9.43,101.25-35.28"/>
            <path class="st13" d="M-69.02,100.13c14.72,12.2,37.37,20.27,59.89,24.71,16.67,3.3,33.02,4.13,48.91,7.3,10.95,2.18,21.67,5.52,32.09,11.46,23.64,13.47,24.75,44.54,27.75,65.1,2.7,18.49,1.49,39.61,10.79,56.5,10.83,19.68,31.85,30.16,55.02,32.47,23.05,2.24,48.32-4.59,72.87-7.16,30.11-3.08,58.22-4.28,84.86-1.44,30.56,3.26,61.93-4.33,92.98-15.22,15.37-5.44,31.74-16.11,45.3-26.41,33.89-25.73,64.27-57.05,100.99-72.02,8.07-3.26,16.43-5.69,24.94-7.18,15.24-2.74,30.59-2.64,46.47-1.55,8.16.56,16.47,1.37,24.85,2.46,36.35,4.71,73.27,14.27,110.48,15.04,37.18.78,77.31-9.07,101.86-35.87"/>
            <path class="st3" d="M-74.69,105.15c15.27,10.68,37.35,17.84,59.28,22.08,16.19,3.14,32.08,4.27,47.54,7.57,10.65,2.26,21.09,5.61,31.23,11.27,23.23,12.95,27.08,41.37,31.48,61.7,3.78,17.46,3.67,37.77,13.51,53.37,11.78,18.65,33.25,27.16,56.06,28.31,22.71,1.09,47.29-6.02,71.4-8.12,29.63-2.51,57.39-1.67,83.46,2.6,30.93,5.06,63.31-.76,95.19-10.58,15.77-4.9,32.62-15.58,46.3-25.94,34.24-25.93,63.79-58.58,100.44-75.31,8.05-3.65,16.41-6.48,24.96-8.41,15.33-3.51,30.93-4.25,47.05-3.75,8.28.26,16.71.83,25.21,1.74,36.84,3.96,74.01,14,111.56,15.12,37.53,1.12,78.36-8.71,102.46-36.46"/>
            <path class="st2" d="M-80.36,110.16c15.82,9.15,37.34,15.4,58.68,19.45,15.71,2.99,31.15,4.41,46.18,7.83,10.35,2.35,20.5,5.7,30.36,11.07,22.82,12.43,29.34,38.21,35.21,58.31,4.81,16.45,5.87,35.91,16.24,50.23,12.75,17.6,34.65,24.17,57.1,24.15,22.37-.07,46.25-7.45,69.92-9.08,29.15-1.95,56.06,3.72,82.05,6.63,31.86,3.57,64.7,2.81,97.4-5.94,16.16-4.36,33.49-15.05,47.29-25.47,34.6-26.13,63.31-60.1,99.89-78.6,8.02-4.03,16.39-7.27,24.99-9.63,15.42-4.29,31.27-5.86,47.63-5.96,8.41-.05,16.96.28,25.56,1.02,37.32,3.21,74.74,13.74,112.63,15.2,37.87,1.47,79.41-8.35,103.06-37.06"/>
            <path class="st21" d="M-86.03,115.17c16.38,7.62,37.32,12.97,58.07,16.82,15.23,2.83,30.21,4.56,44.81,8.1,10.05,2.43,19.92,5.79,29.49,10.88,22.41,11.91,31.52,35.1,38.94,54.91,5.79,15.46,8.09,34.04,18.97,47.1,13.76,16.52,36.05,21.17,58.14,19.98,22.02-1.22,45.22-8.88,68.45-10.04,28.66-1.38,55.02,6.16,80.65,10.66,32.38,5.68,66.08,6.38,99.62-1.29,16.56-3.82,34.37-14.52,48.29-25,34.95-26.33,62.83-61.62,99.34-81.89,8-4.42,16.38-8.06,25.01-10.86,15.51-5.06,31.61-7.47,48.21-8.16,8.53-.35,17.2-.26,25.92.3,37.8,2.46,75.47,13.47,113.71,15.28,38.22,1.81,80.46-7.99,103.66-37.65"/>
            <path class="st7" d="M-91.7,120.19c16.93,6.1,37.31,10.54,57.47,14.19,14.75,2.68,29.28,4.7,43.45,8.36,9.75,2.52,19.33,5.88,28.62,10.68,22,11.39,33.64,32.05,42.67,51.52,6.74,14.52,10.32,32.13,21.7,43.97,14.79,15.4,37.45,18.17,59.18,15.82,21.68-2.38,44.19-10.31,66.98-11,28.18-.81,53.95,8.64,79.24,14.7,32.85,7.86,67.47,9.95,101.83,3.35,16.96-3.28,35.24-13.98,49.28-24.54,35.31-26.53,62.35-63.14,98.79-85.19,7.97-4.8,16.36-8.85,25.03-12.08,15.6-5.83,31.95-9.08,48.79-10.36,8.65-.66,17.44-.81,26.27-.41,38.28,1.71,76.21,13.2,114.79,15.36,38.57,2.15,81.51-7.63,104.26-38.24"/>
            <path class="st23" d="M-97.36,125.2c17.48,4.57,37.29,8.11,56.86,11.56,14.27,2.52,28.34,4.84,42.08,8.63,9.45,2.6,18.76,5.95,27.75,10.49,21.62,10.83,35.7,29.07,46.4,48.12,7.66,13.63,12.57,30.19,24.43,40.84,15.84,14.23,38.85,15.17,60.22,11.66,21.34-3.53,43.16-11.74,65.5-11.96,27.7-.25,52.83,11.15,77.83,18.73,33.28,10.09,68.85,13.52,104.04,7.99,17.35-2.74,36.12-13.45,50.28-24.07,35.66-26.73,61.87-64.67,98.24-88.48,7.95-5.19,16.34-9.65,25.06-13.31,15.68-6.61,32.29-10.69,49.38-12.56,8.78-.96,17.69-1.35,26.63-1.13,38.76.96,76.94,12.94,115.86,15.44,38.91,2.5,82.56-7.27,104.86-38.83"/>
            <path class="st18" d="M-103.03,130.21c18.04,3.05,37.27,5.68,56.25,8.93,13.79,2.37,27.41,4.98,40.72,8.89,9.15,2.69,18.17,6.04,26.88,10.29,21.2,10.31,37.72,26.17,50.14,44.73,8.57,12.81,14.82,28.21,27.16,37.71,16.91,13.02,40.25,12.17,61.26,7.49,21-4.69,42.13-13.17,64.03-12.92,27.22.32,51.67,13.67,76.43,22.76,33.65,12.36,70.24,17.09,106.25,12.63,17.75-2.2,36.99-12.92,51.27-23.6,36.02-26.93,61.4-66.19,97.68-91.77,7.92-5.58,16.33-10.44,25.08-14.53,15.77-7.38,32.63-12.3,49.96-14.77,8.9-1.27,17.93-1.9,26.98-1.85,39.25.21,77.68,12.67,116.94,15.51,39.26,2.84,83.61-6.91,105.46-39.43"/>
            <path class="st24" d="M-108.7,135.23c32.04,2.62,64.32,5.84,95,15.46s59.98,26.18,79.88,51.43c9.48,12.04,17.06,26.2,29.89,34.58,17.97,11.74,41.65,9.17,62.3,3.33,20.65-5.84,41.1-14.59,62.55-13.89,26.74.88,50.46,16.2,75.02,26.8,33.96,14.66,71.62,20.66,108.46,17.27,18.15-1.67,37.87-12.39,52.27-23.13,36.37-27.13,60.92-67.71,97.13-95.06,29.45-22.24,66.08-34.79,102.98-35.29,39.73-.54,78.41,12.41,118.02,15.59s84.66-6.55,106.06-40.02"/>
          </g>
          <g>
            <path class="st39" d="M-16,98.9c3.54,34.15,31.52,64.36,65.5,70.74,52.31,9.81,101.33-31.85,154.55-32.76,11.99-.2,24.79,2.08,33.49,10.25,6.85,6.43,10.28,15.7,12,24.91,6.42,34.36-7.98,69.16-7.98,104.11,0,8.69,1.01,17.72,5.56,25.14,10.79,17.59,36.22,18.99,56.29,13.78,23.27-6.04,44.75-17.64,67.55-24.83,23.74-7.48,48.6.18,69.94,11.16,22.89,11.78,44.37,27.36,69.51,33.01,22.94,5.15,47.81,1.26,68.04-10.64,27.56-16.21,44.66-45.05,60.2-72.86,39.36-70.46,77.45-143.79,137.3-198.2"/>
            <path class="st37" d="M-15.64,95.29c1.66,11.32,6.72,21.54,13.29,30.16,3.6,4.73,7.69,9.03,12.15,12.99,4.04,3.57,8.32,6.74,12.87,10.17,2.85,2.15,5.82,4.39,8.57,6.63,2.88,2.34,5.45,4.84,8.09,6.93,5.89,4.67,11.37,9.24,17.78,11.34,46.5,15.27,92.78-27.28,141.67-27.02,11.01.06,22.78,2.41,30.77,10.21,6.29,6.13,9.43,14.89,10.99,23.58,5.84,32.45-7.75,65.31-7.41,98.31.1,10.2,2.18,20.73,8.24,28.72.35.46.7.9,1.07,1.33,6.89,8.17,16.95,11.89,27.74,13.09,12.37,1.37,25.83-.81,37.82-4.54,22.66-7.06,43.87-18.28,66.1-26.03,23.11-8.03,47.22-2.13,68.16,6.95,4.6,2,9.15,4.14,13.68,6.34,17.6,8.53,35.13,17.73,54.86,21.33,22.67,4.12,47.22.17,67.45-10.7,8.36-4.5,15.83-9.99,22.63-16.1,12.08-10.88,21.96-23.78,31.09-37.09,2.65-3.87,5.24-7.77,7.8-11.65,41.32-62.82,82.56-130.84,142.5-183.86"/>
            <path class="st50" d="M-15.28,91.69c2.29,12.66,9.29,23.46,17.67,31.9,4.6,4.63,9.68,8.67,15.11,12.34,4.92,3.33,10.01,6.11,15.35,9.75,3.3,2.25,6.71,4.8,9.61,7.5,2.99,2.79,5.25,6.1,7.55,8.74,5.24,6.02,9.71,11.27,14.71,15.49,43.46,10.39,84.24-22.71,128.79-21.29,10.03.32,20.77,2.75,28.05,10.17,5.73,5.83,8.57,14.07,9.98,22.25,5.25,30.54-7.41,61.46-6.85,92.5.21,11.71,3.35,23.74,10.92,32.3.43.49.88.96,1.34,1.42,8.54,8.62,20.43,11.73,32.73,12.2,14.25.55,29.32-2.82,42.92-7.65,22.09-7.84,42.98-18.91,64.64-27.23,22.47-8.58,45.83-4.43,66.38,2.74,4.51,1.58,8.98,3.3,13.44,5.07,17.3,6.91,34.67,14.53,54.13,17.25,22.4,3.08,46.62-.92,66.86-10.77,8.36-4.07,15.9-8.97,22.8-14.34,12.27-9.56,22.39-20.68,31.88-32.29,2.76-3.37,5.46-6.79,8.15-10.2,43.28-55.19,87.67-117.89,147.7-169.52"/>
            <path class="st47" d="M-14.93,88.08c2.91,14.01,11.85,25.38,22.06,33.63,5.61,4.53,11.67,8.29,18.06,11.68,5.81,3.08,11.69,5.48,17.82,9.33,3.74,2.35,7.61,5.21,10.64,8.37,3.1,3.24,5.04,7.37,7.01,10.55,4.57,7.4,7.79,14,11.65,19.64,39.04,10.69,75.69-18.13,115.91-15.55,9.06.59,18.76,3.09,25.33,10.12,5.17,5.53,7.72,13.25,8.97,20.92,4.67,28.63-6.99,57.61-6.28,86.7.32,13.22,4.52,26.76,13.6,35.88.52.52,1.05,1.02,1.6,1.51,10.18,9.08,23.9,11.56,37.72,11.32,16.13-.28,32.81-4.79,48.01-10.75,21.56-8.46,42.1-19.55,63.19-28.42,21.83-9.13,44.44-6.73,64.6-1.46,4.42,1.16,8.81,2.46,13.2,3.81,16.99,5.29,34.21,11.34,53.41,13.17,22.14,2.05,46.03-2.01,66.26-10.83,8.36-3.65,15.96-7.95,22.98-12.58,12.46-8.23,22.83-17.57,32.68-27.49,2.86-2.88,5.69-5.81,8.49-8.75,45.24-47.56,92.78-104.95,152.91-155.18"/>
            <path class="st51" d="M-14.57,84.47c3.54,15.35,14.42,27.3,26.45,35.37,6.61,4.43,13.67,7.92,21.02,11.02,6.69,2.82,13.37,4.85,20.29,8.91,4.18,2.45,8.51,5.61,11.68,9.24,3.22,3.69,4.83,8.65,6.47,12.36,3.89,8.79,5.86,16.72,8.58,23.79,34.62,10.98,67.14-13.56,103.03-9.82,8.08.85,16.75,3.42,22.61,10.08,4.61,5.23,6.87,12.44,7.97,19.59,4.09,26.72-6.53,53.76-5.72,80.9.44,14.74,5.69,29.77,16.28,39.47.61.55,1.23,1.09,1.86,1.6,11.81,9.55,27.38,11.38,42.71,10.43,18.02-1.12,36.32-6.7,53.1-13.85,21.06-8.97,41.22-20.18,61.74-29.62,21.2-9.68,43.06-9.03,62.82-5.67,4.33.75,8.64,1.61,12.96,2.55,16.69,3.64,33.75,8.15,52.68,9.08,21.87,1.01,45.43-3.1,65.67-10.9,8.36-3.22,16.03-6.93,23.15-10.81,12.65-6.91,23.26-14.47,33.48-22.7,2.97-2.39,5.91-4.83,8.84-7.3,47.21-39.93,97.9-92,158.11-140.85"/>
            <path class="st36" d="M-14.21,80.86c4.17,16.7,16.99,29.22,30.84,37.11,7.61,4.33,15.67,7.54,23.97,10.36,7.58,2.57,15.04,4.22,22.76,8.49,4.63,2.55,9.41,6.01,12.71,10.12,3.33,4.14,4.61,9.93,5.94,14.18,3.19,10.19,3.94,19.45,5.52,27.94,30.2,11.27,58.59-8.99,90.15-4.08,7.1,1.11,14.74,3.76,19.89,10.04,4.05,4.93,6.02,11.62,6.96,18.26,3.51,24.81-6.03,49.91-5.15,75.1.57,16.25,6.86,32.78,18.95,43.05.69.59,1.4,1.15,2.13,1.69,13.44,10.01,30.85,11.2,47.7,9.54,19.9-1.95,39.84-8.57,58.19-16.95,20.59-9.41,40.34-20.81,60.28-30.82,20.56-10.23,41.67-11.33,61.04-9.88,4.24.33,8.47.77,12.71,1.29,16.39,2.01,33.3,4.95,51.96,5,21.6-.02,44.83-4.2,65.07-10.96,8.35-2.8,16.09-5.91,23.33-9.05,12.84-5.58,23.7-11.37,34.28-17.9,3.08-1.9,6.13-3.86,9.18-5.85,49.17-32.3,103.01-79.06,163.31-126.51"/>
            <path class="st27" d="M-13.85,77.26c4.79,18.04,19.56,31.14,35.23,38.84,8.61,4.23,17.68,7.15,26.93,9.7,8.48,2.3,16.72,3.6,25.24,8.07,5.07,2.66,10.31,6.42,13.75,10.99,3.45,4.59,4.38,11.21,5.4,15.99,2.47,11.59,2.01,22.17,2.45,32.09,25.78,11.56,50.05-4.42,77.27,1.65,6.13,1.38,12.73,4.1,17.17,10,3.49,4.63,5.17,10.8,5.95,16.93,2.93,22.89-5.51,46.06-4.59,69.29.7,17.76,8.03,35.79,21.63,46.63.78.62,1.58,1.21,2.39,1.78,15.05,10.51,34.32,11.01,52.69,8.65,21.78-2.8,43.38-10.38,63.28-20.06,20.14-9.79,39.46-21.45,58.83-32.02,19.93-10.78,40.29-13.63,59.26-14.08,4.15-.09,8.3-.07,12.47.03,16.07.39,32.84,1.79,51.23.92,21.34-1.02,44.24-5.29,64.48-11.02,8.35-2.37,16.16-4.9,23.5-7.28,13.03-4.26,24.14-8.27,35.07-13.1,3.18-1.4,6.35-2.88,9.53-4.4,51.13-24.67,108.12-66.11,168.51-112.17"/>
            <path class="st32" d="M-13.49,73.65c5.42,19.39,22.12,33.06,39.62,40.58,9.61,4.13,19.67,6.77,29.89,9.04,9.36,2.05,18.4,2.98,27.71,7.64,5.51,2.76,11.21,6.82,14.78,11.86,3.57,5.04,4.15,12.49,4.86,17.8,1.74,12.98.09,24.9-.61,36.24,21.36,11.85,41.5.15,64.39,7.39,5.15,1.64,10.72,4.43,14.45,9.95,2.93,4.34,4.32,9.99,4.95,15.61,2.35,20.98-4.96,42.21-4.02,63.49.85,19.27,9.2,38.8,24.31,50.21.86.65,1.75,1.28,2.66,1.87,16.68,10.98,37.8,10.83,57.68,7.77,23.66-3.64,46.96-12.15,68.37-23.16,19.71-10.14,38.57-22.08,57.37-33.22,19.29-11.33,38.9-15.94,57.48-18.29,4.07-.5,8.13-.91,12.23-1.23,15.76-1.23,32.38-1.4,50.51-3.16,21.07-2.05,43.64-6.38,63.89-11.09,8.35-1.95,16.22-3.88,23.68-5.52,13.22-2.94,24.57-5.16,35.87-8.3,3.29-.91,6.57-1.9,9.87-2.95,53.09-17.04,113.23-53.16,173.72-97.83"/>
            <path class="st28" d="M-13.14,70.04c6.05,20.73,24.69,34.98,44.01,42.32,10.61,4.03,21.67,6.4,32.84,8.38,10.25,1.8,20.08,2.36,30.18,7.22,5.95,2.86,12.11,7.22,15.82,12.73,3.69,5.49,3.91,13.77,4.32,19.61,1.01,14.37-1.83,27.62-3.68,40.39,16.94,12.14,32.95,4.73,51.51,13.12,4.17,1.9,8.71,4.77,11.73,9.91,2.37,4.04,3.47,9.17,3.94,14.28,1.76,19.07-4.4,38.36-3.46,57.69,1.02,20.79,10.37,41.82,26.99,53.79.95.68,1.92,1.34,2.92,1.96,18.31,11.45,41.26,10.6,62.67,6.88,25.53-4.54,50.56-13.86,73.47-26.26,19.31-10.45,37.69-22.71,55.92-34.42,18.66-11.88,37.51-18.24,55.7-22.5,3.98-.92,7.96-1.75,11.98-2.49,15.45-2.85,31.93-4.6,49.78-7.24,20.8-3.09,43.05-7.47,63.29-11.15,8.35-1.52,16.29-2.86,23.85-3.76,13.41-1.61,25.01-2.06,36.67-3.51,3.39-.42,6.79-.93,10.22-1.5,55.06-9.41,118.34-40.22,178.92-83.49"/>
            <path class="st29" d="M-12.78,66.43c6.67,22.08,27.26,36.91,48.4,44.05,11.61,3.92,23.67,6.02,35.8,7.72,11.14,1.54,21.74,1.75,32.66,6.8,6.39,2.98,13.02,7.62,16.85,13.6,3.8,5.93,3.68,15.05,3.78,21.42.26,15.76-3.76,30.34-6.75,44.55,12.52,12.43,24.4,9.3,38.62,18.86,3.2,2.17,6.7,5.11,9.01,9.87,1.82,3.74,2.62,8.35,2.93,12.95,1.18,17.16-3.83,34.51-2.89,51.89,1.2,22.3,11.54,44.83,29.67,57.37,1.04.72,2.1,1.4,3.19,2.05,19.95,11.92,44.73,10.42,67.66,5.99,27.41-5.38,54.19-15.53,78.56-29.36,18.92-10.75,36.81-23.35,54.47-35.62,18.02-12.43,36.13-20.54,53.92-26.7,3.89-1.34,7.79-2.59,11.74-3.75,15.14-4.46,31.46-7.83,49.06-11.33,20.53-4.16,42.45-8.56,62.7-11.21,8.35-1.1,16.35-1.84,24.03-1.99,13.6-.29,25.44,1.04,37.47,1.29,3.5.07,7.02.05,10.56-.05,57.02-1.78,123.46-27.27,184.12-69.15"/>
            <path class="st33" d="M-12.42,62.82c7.3,23.42,29.83,38.83,52.79,45.79,12.62,3.82,25.67,5.64,38.75,7.07,12.03,1.29,23.42,1.13,35.13,6.38,6.83,3.08,13.93,8.02,17.88,14.47,3.93,6.38,3.44,16.33,3.25,23.23-.48,17.14-5.68,33.07-9.81,48.7,8.1,12.72,15.88,13.85,25.74,24.59,2.23,2.43,4.69,5.45,6.29,9.83,1.26,3.44,1.76,7.54,1.93,11.62.6,15.25-3.24,30.66-2.33,46.08,1.42,23.8,12.71,47.84,32.35,60.96,1.12.75,2.27,1.46,3.45,2.14,21.58,12.39,48.21,10.24,72.65,5.1,29.29-6.22,57.87-17.14,83.65-32.47,18.56-11.03,35.93-23.98,53.01-36.82,17.38-12.98,34.74-22.84,52.14-30.91,3.8-1.75,7.62-3.43,11.5-5.01,14.84-6.07,31-11.02,48.33-15.41,20.26-5.2,41.86-9.65,62.11-11.28,8.34-.67,16.42-.82,24.2-.23,13.79,1.04,25.88,4.15,38.26,6.09,3.6.57,7.24,1.03,10.91,1.4,58.98,5.85,128.57-14.33,189.32-54.81"/>
            <path class="st31" d="M-12.06,59.22c7.93,24.77,32.39,40.75,57.17,47.53,13.62,3.72,27.66,5.27,41.71,6.41,12.91,1.04,25.1.51,37.6,5.96,7.27,3.19,14.83,8.42,18.92,15.34,4.05,6.82,3.2,17.6,2.71,25.04-1.23,18.52-7.61,35.79-12.88,52.85,3.68,13.01,7.33,18.43,12.86,30.32,1.25,2.69,2.68,5.78,3.57,9.79.7,3.14.91,6.72.92,10.29.02,13.33-2.65,26.8-1.76,40.28,1.68,25.31,13.88,50.85,35.02,64.54,1.21.78,2.45,1.53,3.72,2.23,23.21,12.86,51.68,10.06,77.64,4.22,31.17-7.06,61.58-18.71,88.74-35.57,18.2-11.3,35.04-24.61,51.56-38.02,16.75-13.53,33.36-25.14,50.36-35.12,3.71-2.17,7.46-4.26,11.26-6.27,14.54-7.66,30.54-14.21,47.61-19.49,19.99-6.23,41.26-10.74,61.51-11.34,8.34-.25,16.48.2,24.37,1.53,13.98,2.36,26.31,7.25,39.06,10.89,3.71,1.06,7.46,2.01,11.25,2.85,60.94,13.48,133.68-1.38,194.52-40.48"/>
            <path class="st30" d="M-11.7,55.61c8.55,26.11,34.96,42.67,61.56,49.27,14.62,3.62,29.66,4.89,44.67,5.75,13.8.78,26.78-.12,40.07,5.54,7.71,3.29,15.73,8.82,19.95,16.21,4.17,7.27,2.95,18.87,2.17,26.86-2.01,19.9-12.16,37.81-15.94,57-2.58,13.07-1.24,23.01-.02,36.06.27,2.96.67,6.12.85,9.74.14,2.84.06,5.9-.09,8.96-.56,11.42-2.05,22.94-1.2,34.48,2,26.81,15.05,53.87,37.7,68.12,1.3.82,2.62,1.59,3.98,2.32,24.84,13.33,55.15,9.88,82.63,3.33,33.05-7.9,65.33-20.23,93.83-38.67,17.87-11.56,34.16-25.25,50.1-39.22,16.11-14.08,31.97-27.45,48.58-39.32,3.62-2.58,7.29-5.1,11.01-7.53,14.24-9.27,30.09-17.41,46.88-23.57,19.73-7.27,40.67-11.83,60.92-11.4,8.34.18,16.55,1.21,24.55,3.3,14.16,3.69,26.75,10.35,39.86,15.68,3.81,1.55,7.68,2.98,11.6,4.3,62.91,21.11,138.79,11.57,199.73-26.14"/>
            <path class="st26" d="M-11.35,52c9.18,27.46,37.53,44.59,65.95,51,15.62,3.52,31.66,4.51,47.62,5.09,14.69.53,28.46-.74,42.55,5.11,8.16,3.39,16.63,9.23,20.99,17.09,4.28,7.72,2.72,20.15,1.63,28.67-2.72,21.27-11.46,41.24-19.01,61.15-10.66,28.1-19.06,57.88-16.5,87.8,2.56,29.92,17.84,60.15,44.63,74.11,26.47,13.79,58.62,9.69,87.62,2.44,34.93-8.74,69.12-21.7,98.92-41.77,39.06-26.31,69.14-63.75,106.22-92.74,37.08-28.99,86.67-49.6,131.21-34.06,14.35,5.01,27.19,13.46,40.65,20.48,66.9,34.9,152.05,32.52,216.87-6.05"/>
          </g>
          <g>
            <path class="st34" d="M-11.35,52c9.18,27.46,37.53,44.59,65.95,51,36.32,8.19,70.96-3.54,103.34,18.06,27.81,18.55-.65,75.56-9.56,99.05-10.66,28.1-19.06,57.88-16.5,87.8,2.56,29.92,17.84,60.15,44.63,74.11,26.47,13.79,58.62,9.69,87.62,2.44,34.93-8.74,69.12-21.7,98.92-41.77,39.06-26.31,69.14-63.75,106.22-92.74,37.08-28.99,86.67-49.6,131.21-34.06,14.35,5.01,27.19,13.46,40.65,20.48,66.9,34.9,152.05,32.52,216.87-6.05"/>
            <path class="st35" d="M-13.12,62.23c9.29,27.06,37.02,44.18,64.94,50.92,13.17,3.17,26.13,3.72,38.87,4.2,21.75.83,42.81,1.44,63.03,14.62,27.72,18,1.81,72.59-5.7,94.82-3.81,11.28-7.39,22.77-9.9,34.44-3.46,16.05-5.01,32.41-3.04,48.83,3.4,28.35,18.98,57.04,45.57,70.38,16.28,8.17,34.65,9.84,53.09,8.42,11.3-.87,22.62-2.91,33.5-5.35,34.4-7.75,67.93-19.38,97.26-37.66,14.01-8.73,26.92-18.69,39.5-29.33,12.57-10.64,24.89-21.91,37.54-33.19,9.48-8.46,19.09-16.91,29.11-24.85,1.82-1.44,3.66-2.87,5.53-4.27,11.9-8.94,24.79-17.03,38.28-23.34,27.2-12.7,56.88-18.18,84.61-9.7,2.48.76,4.91,1.62,7.31,2.55,11.22,4.38,21.7,10.43,32.62,15.57,8.62,4.06,17.56,7.53,26.73,10.4,18.8,5.88,38.59,9.29,58.6,10.18,44.7,1.99,90.49-8.57,129.34-31.44"/>
            <path class="st43" d="M-14.9,72.46c9.39,26.66,36.52,43.77,63.92,50.83,12.91,3.32,25.66,4.1,38.21,4.79,21.44,1.19,42.24,2.04,62.25,14.8,27.64,17.46,4.29,69.6-1.84,90.59-3.13,10.72-6.21,21.58-8.18,32.61-2.75,15.18-3.66,30.62-1.2,46.13,4.23,26.79,20.12,53.93,46.51,66.64,16.16,7.79,34.31,9.46,52.52,8.31,11.15-.71,22.31-2.49,33.03-4.6,33.88-6.77,66.75-17.06,95.6-33.54,13.82-7.89,26.61-16.75,39.16-26.47,12.55-9.71,25.01-20.16,37.79-31.03,9.58-8.15,19.21-16.54,29.13-24.5,1.8-1.45,3.63-2.88,5.47-4.3,11.74-9.03,24.3-17.32,37.47-23.89,26.53-13.2,55.54-19.45,82.71-12.36,2.43.63,4.82,1.36,7.17,2.16,11,3.75,21.3,9.1,32.03,13.6,8.48,3.56,17.27,6.55,26.3,8.99,18.52,5.01,38.07,7.74,57.85,8.1,44.19.81,89.52-10.2,128.31-32.79"/>
            <path class="st40" d="M-16.68,82.69c9.49,26.27,36.01,43.35,62.9,50.74,12.66,3.46,25.19,4.48,37.55,5.38,21.12,1.54,41.63,2.7,61.48,14.97,27.5,17,6.77,66.6,2.01,86.36-2.44,10.16-5.02,20.38-6.46,30.78-2.03,14.3-2.3,28.83.64,43.43,5.07,25.23,21.27,50.82,47.45,62.91,16.04,7.41,33.98,9.08,51.96,8.2,10.99-.55,22-2.06,32.57-3.86,33.36-5.79,65.59-14.75,93.94-29.42,13.63-7.06,26.29-14.82,38.82-23.61,12.52-8.79,25.14-18.4,38.03-28.87,9.67-7.85,19.33-16.16,29.15-24.16,1.78-1.45,3.59-2.9,5.4-4.32,11.58-9.11,23.82-17.61,36.66-24.45,25.86-13.71,54.21-20.72,80.81-15.02,2.38.51,4.72,1.11,7.02,1.78,10.79,3.13,20.9,7.78,31.45,11.64,8.33,3.05,16.98,5.57,25.88,7.59,18.24,4.14,37.56,6.2,57.1,6.03,43.67-.36,88.55-11.83,127.29-34.13"/>
            <path class="st41" d="M-18.46,92.92c9.6,25.87,35.5,42.94,61.88,50.66,12.41,3.61,24.71,4.86,36.88,5.97,20.8,1.9,41.05,3.32,60.71,15.14,27.4,16.48,9.26,63.57,5.87,82.14-1.75,9.58-3.81,19.19-4.74,28.94-1.28,13.43-.95,27.04,2.48,40.74,5.91,23.66,22.41,47.71,48.4,59.18,15.92,7.03,33.64,8.7,51.39,8.09,10.84-.39,21.69-1.61,32.11-3.11,32.84-4.73,64.44-12.43,92.28-25.3,13.45-6.22,25.98-12.89,38.49-20.75,12.5-7.86,25.26-16.65,38.28-26.71,9.76-7.55,19.44-15.78,29.17-23.81,1.77-1.46,3.55-2.91,5.34-4.35,11.42-9.2,23.33-17.9,35.85-25.01,25.19-14.21,52.87-21.99,78.9-17.68,2.33.38,4.62.85,6.88,1.39,10.57,2.51,20.51,6.46,30.87,9.67,8.19,2.54,16.69,4.59,25.45,6.18,17.97,3.27,37.04,4.65,56.35,3.96,43.16-1.54,87.58-13.45,126.26-35.48"/>
            <path class="st52" d="M-20.24,103.15c9.7,25.48,35,42.53,60.87,50.57,12.16,3.75,24.24,5.24,36.22,6.56,20.49,2.26,40.47,3.94,59.94,15.32,27.3,15.95,11.76,60.52,9.73,77.91-1.05,9-2.62,18-3.02,27.11-.55,12.55.41,25.25,4.32,38.04,6.74,22.1,23.55,44.6,49.34,55.45,15.8,6.64,33.3,8.32,50.82,7.97,10.69-.23,21.37-1.18,31.64-2.37,32.32-3.74,63.31-10.11,90.61-21.18,13.29-5.38,25.67-10.96,38.15-17.89,12.48-6.93,25.38-14.89,38.52-24.55,9.86-7.24,19.56-15.4,29.19-23.46,1.75-1.46,3.51-2.92,5.27-4.38,11.26-9.29,22.84-18.2,35.04-25.57,24.52-14.72,51.54-23.26,77-20.34,2.28.26,4.52.6,6.74,1,10.35,1.88,20.11,5.13,30.29,7.7,8.05,2.03,16.4,3.61,25.03,4.78,17.69,2.4,36.52,3.11,55.61,1.89,42.64-2.71,86.62-15.08,125.23-36.83"/>
            <path class="st54" d="M-22.02,113.38c9.81,25.08,34.49,42.11,59.85,50.48,11.9,3.9,23.77,5.63,35.56,7.15,20.17,2.62,39.89,4.56,59.16,15.49,27.2,15.43,14.27,57.43,13.59,73.68-.35,8.4-1.43,16.81-1.3,25.28.17,11.68,1.76,23.46,6.17,35.34,7.58,20.53,24.69,41.5,50.28,51.72,15.68,6.26,32.96,7.94,50.26,7.86,10.54-.07,21.06-.75,31.18-1.62,31.8-2.74,62.2-7.79,88.95-17.06,13.13-4.55,25.35-9.03,37.81-15.04,12.45-6,25.5-13.14,38.77-22.39,9.95-6.94,19.67-15.02,29.21-23.12,1.73-1.47,3.47-2.94,5.21-4.4,11.1-9.37,22.36-18.49,34.23-26.13,23.84-15.22,50.2-24.53,75.1-23.01,2.23.13,4.42.34,6.59.61,10.14,1.26,19.71,3.81,29.71,5.74,7.9,1.52,16.11,2.63,24.6,3.37,17.41,1.53,36,1.56,54.86-.18,42.13-3.89,85.65-16.71,124.2-38.17"/>
            <path class="st15" d="M-23.8,123.61c9.91,24.68,33.99,41.7,58.83,50.4,11.65,4.04,23.29,6.01,34.89,7.74,19.85,2.98,39.32,5.18,58.39,15.66,27.11,14.91,16.77,54.29,17.45,69.45.35,7.78-.24,15.61.42,23.44.9,10.79,3.12,21.67,8.01,32.64,8.42,18.97,25.83,38.39,51.22,47.99,15.56,5.88,32.62,7.55,49.69,7.75,10.38.09,20.75-.32,30.72-.87,31.27-1.74,61.11-5.46,87.29-12.94,12.98-3.71,25.04-7.1,37.47-12.18,12.43-5.08,25.62-11.38,39.01-20.23,10.04-6.64,19.79-14.65,29.23-22.77,1.71-1.48,3.43-2.95,5.14-4.43,10.94-9.46,21.87-18.78,33.42-26.68,23.17-15.73,48.87-25.8,73.2-25.67,2.18,0,4.33.09,6.45.22,9.92.64,19.31,2.48,29.13,3.77,7.76,1.02,15.82,1.65,24.18,1.97,17.13.66,35.48.02,54.11-2.25,41.61-5.06,84.68-18.33,123.18-39.52"/>
            <path class="st17" d="M-25.58,133.84c10.02,24.29,33.48,41.29,57.82,50.31,11.4,4.19,22.82,6.39,34.23,8.33,19.54,3.34,38.74,5.79,57.62,15.84,27.01,14.38,19.25,51.1,21.31,65.22,1.04,7.13.96,14.41,2.13,21.61,1.62,9.91,4.47,19.88,9.85,29.95,9.25,17.41,26.97,35.28,52.16,44.26,15.44,5.5,32.28,7.17,49.12,7.63,10.23.25,20.43.11,30.26-.13,30.75-.75,60.04-3.11,85.63-8.82,12.84-2.86,24.73-5.16,37.14-9.32,12.41-4.15,25.74-9.62,39.26-18.07,10.14-6.33,19.91-14.27,29.25-22.43,1.7-1.48,3.39-2.97,5.07-4.45,10.79-9.55,21.37-19.1,32.61-27.24,22.47-16.28,47.53-27.07,71.3-28.33,2.13-.12,4.23-.17,6.3-.17,9.7.01,18.91,1.16,28.55,1.8,7.61.51,15.53.67,23.75.56,16.85-.21,34.96-1.53,53.36-4.33,41.1-6.24,83.71-19.96,122.15-40.86"/>
            <path class="st11" d="M-27.36,144.07c10.12,23.89,32.97,40.88,56.8,50.23,11.15,4.33,22.35,6.77,33.57,8.92,19.22,3.7,38.16,6.4,56.84,16.01,26.92,13.85,21.71,47.85,25.16,61,1.7,6.47,2.15,13.21,3.85,19.77,2.35,9.03,5.83,18.08,11.69,27.25,10.09,15.84,28.12,32.17,53.11,40.53,15.31,5.12,31.94,6.79,48.56,7.52,10.08.41,20.12.54,29.79.62,30.22.24,58.99-.74,83.97-4.7,12.71-2.01,24.41-3.23,36.8-6.46,12.38-3.22,25.86-7.87,39.5-15.91,10.23-6.03,20.02-13.89,29.28-22.08,1.68-1.49,3.35-2.98,5.01-4.48,10.63-9.63,20.88-19.39,31.79-27.8,21.79-16.79,46.2-28.34,69.4-30.99,2.08-.24,4.13-.42,6.16-.55,9.49-.61,18.51-.16,27.97-.17,7.47,0,15.24-.31,23.33-.84,16.57-1.08,34.45-3.07,52.61-6.4,40.58-7.42,82.74-21.59,121.12-42.21"/>
            <path class="st12" d="M-29.14,154.3c10.22,23.49,32.47,40.46,55.78,50.14,10.89,4.47,21.87,7.16,32.9,9.51,18.9,4.06,37.59,7.01,56.07,16.19,26.83,13.32,24.1,44.54,29.02,56.77,2.33,5.78,3.34,12.01,5.57,17.94,3.07,8.14,7.18,16.29,13.54,24.55,10.93,14.28,29.26,29.06,54.05,36.8,15.19,4.74,31.6,6.41,47.99,7.41,9.93.57,19.8.97,29.33,1.36,29.69,1.23,57.96,1.64,82.31-.58,12.59-1.15,24.1-1.3,36.46-3.6,12.36-2.29,25.98-6.11,39.75-13.75,10.32-5.73,20.14-13.51,29.3-21.73,1.66-1.49,3.31-3,4.94-4.51,10.47-9.72,20.39-19.68,30.98-28.36,21.12-17.29,44.86-29.61,67.5-33.65,2.03-.37,4.03-.68,6.01-.94,9.27-1.23,18.11-1.49,27.39-2.13,7.33-.51,14.95-1.28,22.9-2.24,16.3-1.96,33.93-4.62,51.87-8.47,40.06-8.59,81.78-23.21,120.09-43.55"/>
            <path class="st16" d="M-30.92,164.53c10.33,23.1,31.96,40.05,54.76,50.05,10.64,4.62,21.4,7.54,32.24,10.1,18.59,4.42,37.02,7.62,55.3,16.36,26.74,12.78,26.41,41.22,32.88,52.54,2.91,5.09,4.52,10.8,7.29,16.11,3.78,7.25,8.53,14.5,15.38,21.85,11.77,12.71,30.4,25.95,54.99,33.07,15.07,4.36,31.27,6.03,47.42,7.3,9.77.73,19.49,1.4,28.87,2.11,29.16,2.22,57.03,1.44,80.65,3.54,12.44,1.11,23.79.63,36.12-.74,12.33-1.37,26.11-4.36,39.99-11.59,10.41-5.42,20.25-13.13,29.32-21.39,1.65-1.5,3.27-3.01,4.88-4.53,10.31-9.81,19.91-19.98,30.17-28.91,20.44-17.8,43.53-30.88,65.59-36.32,1.98-.5,3.93-.93,5.87-1.33,9.05-1.86,17.71-2.81,26.8-4.1,7.18-1.02,14.66-2.26,22.48-3.65,16.02-2.83,33.41-6.16,51.12-10.54,39.55-9.77,80.81-24.84,119.07-44.9"/>
            <path class="st5" d="M-32.7,174.76c10.43,22.7,31.46,39.64,53.75,49.97,10.39,4.76,20.93,7.92,31.58,10.69,18.27,4.78,36.45,8.23,54.52,16.53,26.66,12.24,28.61,37.91,36.74,48.31,3.44,4.41,5.7,9.6,9.01,14.27,4.49,6.36,9.89,12.71,17.22,19.16,12.6,11.15,31.54,22.84,55.93,29.34,14.95,3.98,30.93,5.65,46.85,7.18,9.62.89,19.17,1.82,28.41,2.85,28.63,3.2,56.22,3.88,78.98,7.66,12.22,2.03,23.47,2.56,35.79,2.12,12.31-.44,26.23-2.6,40.24-9.43,10.51-5.12,20.37-12.76,29.34-21.04,1.63-1.5,3.23-3.03,4.81-4.56,10.15-9.89,19.42-20.27,29.36-29.47,19.77-18.3,42.19-32.15,63.69-38.98,1.93-.62,3.84-1.19,5.73-1.72,8.84-2.48,17.31-4.14,26.22-6.07,7.04-1.53,14.37-3.24,22.05-5.05,15.74-3.7,32.89-7.71,50.37-12.61,39.03-10.94,79.84-26.47,118.04-46.24"/>
            <path class="st4" d="M-34.48,184.99c10.54,22.31,30.95,39.23,52.73,49.88,10.14,4.91,20.45,8.3,30.91,11.28,17.95,5.14,35.88,8.83,53.75,16.71,26.57,11.7,30.73,34.66,40.6,44.08,3.94,3.76,6.88,8.4,10.73,12.44,5.2,5.47,11.24,10.92,19.06,16.46,13.44,9.58,32.68,19.73,56.88,25.61,14.83,3.6,30.59,5.26,46.29,7.07,9.47,1.05,18.86,2.25,27.94,3.6,28.11,4.18,54.93,9,77.32,11.78,12.27,1.53,23.16,4.49,35.45,4.98,12.29.49,26.35-.85,40.48-7.27,10.6-4.81,20.49-12.38,29.36-20.69,1.61-1.51,3.19-3.04,4.75-4.59,9.99-9.98,18.93-20.56,28.55-30.03,19.1-18.81,40.86-33.42,61.79-41.64,1.88-.75,3.74-1.44,5.58-2.11,8.62-3.1,16.91-5.46,25.64-8.04,6.89-2.03,14.08-4.22,21.63-6.46,15.46-4.57,32.37-9.25,49.62-14.69,38.52-12.12,78.87-28.1,117.01-47.59"/>
            <path class="st14" d="M-36.26,195.22c10.64,21.91,30.44,38.81,51.71,49.79,9.89,5.05,19.98,8.68,30.25,11.87,17.64,5.5,35.31,9.44,52.98,16.88,26.49,11.16,32.78,31.52,44.46,39.86,4.41,3.15,8.05,7.2,12.45,10.61,5.9,4.58,12.6,9.13,20.9,13.76,14.28,8.02,33.82,16.62,57.82,21.88,14.71,3.22,30.25,4.88,45.72,6.96,9.32,1.21,18.54,2.67,27.48,4.35,27.58,5.16,53.92,11.51,75.66,15.9,12.16,2.45,22.85,6.42,35.11,7.84,12.26,1.42,26.47.91,40.73-5.11,10.69-4.51,20.6-12,29.38-20.35,1.59-1.51,3.15-3.06,4.68-4.61,9.83-10.07,18.45-20.85,27.74-30.59,18.43-19.31,39.52-34.69,59.89-44.3,1.83-.87,3.64-1.7,5.44-2.5,8.4-3.73,16.52-6.78,25.06-10,6.75-2.54,13.79-5.2,21.2-7.86,15.18-5.44,31.85-10.8,48.87-16.76,38-13.29,77.9-29.72,115.98-48.94"/>
            <path class="st9" d="M-38.04,205.44c10.74,21.51,29.94,38.4,50.7,49.71,9.63,5.2,19.51,9.07,29.59,12.46,17.32,5.86,34.74,10.04,52.2,17.05,26.4,10.61,34.82,28.51,48.32,35.63,4.88,2.58,9.23,6,14.16,8.77,6.6,3.7,13.95,7.34,22.75,11.06,15.11,6.46,34.97,13.52,58.76,18.15,14.59,2.84,29.91,4.5,45.15,6.84,9.16,1.37,18.23,3.1,27.02,5.09,27.05,6.14,52.9,14.06,74,20.02,12.05,3.4,22.53,8.36,34.77,10.7,12.24,2.35,26.59,2.66,40.97-2.95,10.79-4.21,20.72-11.62,29.4-20,1.58-1.52,3.11-3.07,4.61-4.64,9.67-10.15,17.96-21.14,26.93-31.14,17.75-19.81,38.19-35.96,57.99-46.96,1.78-1,3.54-1.96,5.29-2.89,8.19-4.35,16.12-8.11,24.48-11.97,6.61-3.05,13.5-6.18,20.78-9.27,14.9-6.31,31.34-12.34,48.12-18.83,37.49-14.47,76.94-31.35,114.96-50.28"/>
            <path class="st6" d="M-39.82,215.67c10.85,21.12,29.43,37.99,49.68,49.62,9.38,5.34,19.03,9.45,28.92,13.05,17.01,6.22,34.17,10.63,51.43,17.23,26.32,10.06,36.88,25.59,52.17,31.4,5.37,2.04,10.4,4.81,15.88,6.94,7.29,2.83,15.31,5.55,24.59,8.37,15.95,4.89,36.11,10.41,59.7,14.42,14.47,2.46,29.57,4.12,44.59,6.73,9.01,1.53,17.92,3.52,26.55,5.84,26.53,7.11,51.85,16.64,72.34,24.14,11.92,4.36,22.22,10.29,34.44,13.56,12.22,3.27,26.71,4.42,41.22-.79,10.88-3.9,20.83-11.24,29.42-19.66,1.56-1.53,3.08-3.09,4.55-4.67,9.51-10.24,17.47-21.43,26.11-31.7,17.08-20.31,36.85-37.23,56.09-49.63,1.73-1.12,3.44-2.21,5.15-3.27,7.97-4.97,15.72-9.43,23.9-13.94,6.46-3.56,13.21-7.16,20.35-10.67,14.63-7.18,30.82-13.89,47.38-20.9,36.97-15.65,75.97-32.98,113.93-51.63"/>
            <path class="st10" d="M-41.6,225.9c10.95,20.72,28.93,37.58,48.66,49.54,9.13,5.49,18.56,9.83,28.26,13.64,16.69,6.57,33.61,11.23,50.66,17.4,26.24,9.5,38.98,22.76,56.03,27.17,5.88,1.52,11.57,3.63,17.6,5.11,7.99,1.96,16.66,3.75,26.43,5.67,16.79,3.33,37.25,7.3,60.64,10.69,14.34,2.08,29.23,3.74,44.02,6.62,8.86,1.7,17.6,3.94,26.09,6.58,26,8.09,50.79,19.24,70.68,28.26,11.78,5.34,21.9,12.22,34.1,16.42,12.19,4.2,26.83,6.17,41.46,1.37,10.97-3.6,20.95-10.87,29.44-19.31,1.54-1.53,3.04-3.1,4.48-4.69,9.35-10.33,17.01-21.7,25.3-32.26,16.46-20.78,35.52-38.5,54.19-52.29,1.68-1.25,3.35-2.47,5-3.66,7.75-5.6,15.32-10.76,23.32-15.91,6.32-4.07,12.92-8.14,19.93-12.08,14.35-8.05,30.3-15.44,46.63-22.97,36.46-16.82,75-34.6,112.9-52.97"/>
            <path class="st20" d="M-43.38,236.13c11.06,20.33,28.42,37.16,47.64,49.45,8.88,5.63,18.09,10.21,27.6,14.23,16.37,6.93,33.04,11.82,49.88,17.57,26.17,8.94,41.14,19.96,59.89,22.94,6.41,1.02,12.75,2.44,19.32,3.27,8.69,1.1,18.02,1.96,28.27,2.97,17.63,1.76,38.39,4.19,61.59,6.96,14.22,1.7,28.89,3.36,43.45,6.51,8.7,1.86,17.29,4.37,25.63,7.33,25.48,9.06,49.69,21.85,69.01,32.38,11.63,6.33,21.59,14.15,33.76,19.28,12.17,5.13,26.95,7.93,41.71,3.53,11.07-3.3,21.06-10.49,29.47-18.96,1.52-1.54,3-3.11,4.42-4.72,9.19-10.41,16.52-22,24.49-32.82,15.79-21.28,34.19-39.77,52.28-54.95,1.63-1.37,3.25-2.72,4.86-4.05,7.54-6.22,14.92-12.08,22.74-17.87,6.17-4.57,12.63-9.12,19.5-13.48,14.07-8.92,29.78-16.98,45.88-25.05,35.94-18,74.03-36.23,111.87-54.32"/>
            <path class="st8" d="M-45.15,246.36c11.16,19.93,27.91,36.75,46.63,49.36,8.62,5.78,17.61,10.59,26.93,14.82,16.06,7.29,32.48,12.41,49.11,17.75,26.09,8.38,43.35,17.19,63.75,18.72,6.97.52,13.92,1.26,21.04,1.44,9.4.24,19.37.17,30.12.27,18.46.2,39.53,1.08,62.53,3.23,14.1,1.31,28.56,2.98,42.89,6.39,8.55,2.02,16.98,4.79,25.17,8.08,24.96,10.02,48.57,24.47,67.35,36.5,11.45,7.33,21.28,16.08,33.42,22.14,12.14,6.06,27.08,9.68,41.95,5.69,11.16-2.99,21.18-10.11,29.49-18.62,1.51-1.54,2.96-3.13,4.35-4.75,9.03-10.5,16.04-22.29,23.68-33.37,15.11-21.79,32.85-41.04,50.38-57.61,1.58-1.5,3.15-2.98,4.72-4.44,7.32-6.84,14.52-13.4,22.15-19.84,6.03-5.08,12.34-10.1,19.07-14.89,13.79-9.79,29.26-18.53,45.13-27.12,35.43-19.17,73.06-37.86,110.85-55.66"/>
            <path class="st19" d="M-46.93,256.59c11.27,19.53,27.41,36.34,45.61,49.28,8.37,5.92,17.14,10.98,26.27,15.41,15.74,7.65,31.91,12.99,48.34,17.92,26.01,7.8,45.66,13.06,67.61,14.49,7.52.49,15.11.08,22.76-.39,10.11-.62,20.73-1.62,31.96-2.42,19.3-1.36,40.67-2.03,63.47-.5,13.98.93,28.22,2.59,42.32,6.28,8.4,2.18,16.67,5.21,24.7,8.82,24.44,10.99,47.41,27.09,65.69,40.62,11.26,8.33,20.96,18.01,33.09,25,12.12,6.98,27.2,11.44,42.2,7.85,11.25-2.69,21.3-9.73,29.51-18.27,1.49-1.55,2.92-3.14,4.28-4.77,8.87-10.59,15.55-22.58,22.87-33.93,14.44-22.29,31.52-42.31,48.48-60.27,1.53-1.62,3.05-3.23,4.57-4.83,7.1-7.47,14.12-14.73,21.57-21.81,5.89-5.59,12.05-11.08,18.65-16.29,13.51-10.67,28.74-20.07,44.38-29.19,34.91-20.35,72.1-39.49,109.82-57.01"/>
            <path class="st22" d="M-48.71,266.82c11.37,19.14,26.9,35.93,44.59,49.19,8.12,6.07,16.67,11.36,25.61,16,15.42,8.01,31.35,13.58,47.56,18.1,25.93,7.23,47.9,11.63,71.47,10.26,8.13-.47,16.29-1.1,24.48-2.23,10.83-1.48,22.08-3.41,33.8-5.12,20.14-2.93,41.82-5.14,64.41-4.23,13.86.55,27.88,2.21,41.75,6.17,8.25,2.34,16.36,5.61,24.24,9.57,23.94,11.91,46.23,29.71,64.03,44.74,11.05,9.33,20.65,19.95,32.75,27.86,12.1,7.91,27.32,13.19,42.44,10.01,11.34-2.38,21.41-9.35,29.53-17.92,1.47-1.55,2.88-3.16,4.22-4.8,8.72-10.67,15.07-22.87,22.06-34.49,13.77-22.8,30.18-43.58,46.58-62.94,1.48-1.75,2.95-3.49,4.43-5.22,6.89-8.09,13.72-16.05,20.99-23.77,5.74-6.1,11.76-12.05,18.22-17.69,13.23-11.54,28.23-21.62,43.64-31.26,34.4-21.53,71.13-41.11,108.79-58.35"/>
            <path class="st38" d="M-50.49,277.05c11.47,18.74,26.4,35.51,43.58,49.1,7.87,6.21,16.19,11.74,24.94,16.59,15.11,8.37,30.79,14.13,46.79,18.27,25.87,6.6,50.22,8.83,75.32,6.03,8.73-.97,17.48-2.28,26.19-4.06,11.54-2.34,23.44-5.2,35.64-7.82,20.97-4.49,42.96-8.25,65.36-7.96,13.74.17,27.54,1.83,41.19,6.05,8.09,2.5,16.05,6.04,23.78,10.31,23.42,12.89,45.02,32.31,62.37,48.85,10.82,10.32,20.34,21.88,32.41,30.72,12.07,8.84,27.44,14.95,42.69,12.17,11.44-2.08,21.53-8.98,29.55-17.58,1.45-1.56,2.84-3.17,4.15-4.82,8.56-10.76,14.58-23.17,21.25-35.05,13.1-23.3,28.85-44.85,44.68-65.6,1.43-1.87,2.86-3.74,4.28-5.6,6.67-8.71,13.32-17.38,20.41-25.74,5.6-6.61,11.47-13.03,17.8-19.1,12.96-12.41,27.71-23.16,42.89-33.33,33.88-22.7,70.16-42.74,107.76-59.7"/>
            <path class="st25" d="M-52.27,287.28c16.87,26.72,39.53,50.07,66.84,66.19,47.39,27.97,101.32,27.92,153.11,14.35,46.24-12.11,96.38-32.35,144.4-16.27,31.94,10.69,61.52,39.99,84.02,64.03,10.59,11.31,20.02,23.81,32.07,33.57,12.05,9.77,27.56,16.7,42.93,14.33,13.62-2.1,25.26-11.23,33.66-22.08,8.4-10.85,14.09-23.46,20.43-35.6,13.55-25.96,30.26-50.14,46.92-74.25,11.55-16.71,23.16-33.5,37.2-48.21,12.68-13.28,27.19-24.71,42.14-35.4,33.37-23.88,69.19-44.37,106.74-61.05"/>
          </g>
          <path class="st60" d="M732.27,239.62c1.73,5.84-34.21,21.45-80.27,34.88-46.06,13.43-84.79,19.59-86.52,13.75-1.73-5.84,34.21-21.45,80.27-34.88,46.06-13.43,84.79-19.59,86.52-13.75Z"/>
          <ellipse class="st61" cx="179.92" cy="383.53" rx="23.06" ry="64.11" transform="translate(-243.13 405.72) rotate(-67.87)"/>
        </g>
      </g>
    </g>
  </g>
</svg>